<?xml version="1.0" standalone="no"?>
<!DOCTYPE svg PUBLIC "-//W3C//DTD SVG 1.1//EN" "http://www.w3.org/Graphics/SVG/1.1/DTD/svg11.dtd" >
<svg xmlns="http://www.w3.org/2000/svg" xmlns:xlink="http://www.w3.org/1999/xlink" version="1.1">
<metadata>
Created by FontForge 20170731 at Sun Jun  1 14:07:47 2014
 By Aleksey,,,
</metadata>
<defs>
<font id="YekanWeb-Regular" horiz-adv-x="0" >
  <font-face 
    font-family="Yekan"
    font-weight="400"
    font-stretch="normal"
    units-per-em="2048"
    panose-1="2 0 5 3 0 0 0 0 0 0"
    ascent="1638"
    descent="-410"
    bbox="-348 -941 2475 2240"
    underline-thickness="100"
    underline-position="-300"
    unicode-range="U+000D-FEFC"
  />
<missing-glyph horiz-adv-x="1024" 
d="M102 1092h820v-1092h-820v1092zM820 102v888h-616v-888h616z" />
    <glyph glyph-name="afii64184" unicode="&#xfedf;&#xfee0;&#x651;&#x670;&#xfeea;" horiz-adv-x="2401" arabic-form="isolated" 
d="M1445 1432v274h66v-274h-66zM1684 1221q0 -51 -27.5 -83t-74.5 -32q-46 0 -95 49q-27 -49 -88 -49q-58 0 -84 28t-26 87v100h68v-98q0 -20 14 -29.5t34 -9.5q47 0 47 39v98h65v-98q0 -22 16.5 -32.5t39.5 -10.5h5q35 2 35 38v103h71v-100zM405 151q36 0 70.5 14.5
t61.5 38.5t44 56t17 68q0 59 -35 114l-81 81q-27 27 -47 47.5t-34 34.5l-7 -8q-54 -49 -89 -87t-52 -65q-34 -54 -34 -109q0 -56 47 -121q48 -64 139 -64zM752 224q-54 -116 -139.5 -176.5t-210.5 -60.5q-72 0 -137 29t-113.5 78t-77 114t-28.5 138q0 99 73 207
q18 29 59.5 74t97.5 101l-57 66l118 117l567 -603q38 -39 64.5 -65.5t43.5 -40.5h1l1 -1q39 -19 116 -20v-3l62 -2h66q48 0 77 12.5t45 38t21.5 63t5.5 87.5v643h168v-679q0 -108 69 -144h1l2 -1q63 -15 183 -15h117q44 0 71.5 12t43 36.5t21 61.5t5.5 86v844h167v-925
q0 -67 -21.5 -120t-61 -90t-94.5 -56.5t-122 -19.5h-183q-60 0 -98.5 2.5t-66.5 10.5t-53 24t-58 44q-71 -61 -127 -70q-60 -11 -255 -11q-122 3 -153 34h-1q-16 6 -209 180z" />
    <glyph glyph-name="afii62834" unicode="&#xfedf;&#xfe82;" horiz-adv-x="1115" arabic-form="isolated" 
d="M554 10q-84 0 -151 15t-114 49t-72.5 88.5t-25.5 133.5v925h171v-844q0 -141 38 -171q26 -25 154 -25h171q80 0 119 52l1 1v1q18 42 18 142v844h164v-925q0 -137 -76.5 -211.5t-213.5 -74.5h-183zM180 1369q-75 0 -113 -38q-37 -37 -69 -98l-130 48q61 143 105 176
q21 18 40.5 29.5t41.5 19t49.5 11t64.5 4.5h407v-152h-396z" />
    <glyph glyph-name="afii62835" unicode="&#xfee0;&#xfe82;" horiz-adv-x="1194" arabic-form="final" 
d="M183 302v919h169v-919h-169zM1005 358q0 -52 13.5 -86t40 -54t66.5 -28t93 -9v-171q-155 4 -251 136q-98 -136 -259 -136h-405q-126 0 -126 146v14t1 11h515q46 0 73.5 12.5t42.5 37.5t20 61.5t5 84.5v844h171v-863zM192 1376q-75 0 -113 -38q-37 -37 -69 -98l-130 48
q61 143 105 176q21 18 40.5 29.5t41.5 19t49.5 11t64.5 4.5h407v-152h-396z" />
    <glyph glyph-name="afii62836" unicode="&#xfedf;&#xfe84;" horiz-adv-x="1066" arabic-form="isolated" 
d="M523 10q-84 0 -151 15t-114 49t-72.5 88.5t-25.5 133.5v925h171v-844q0 -141 38 -171q26 -25 154 -25h171q80 0 119 52l1 1v1q18 42 18 142v844h164v-925q0 -137 -76.5 -211.5t-213.5 -74.5h-183zM192 1566q0 -34 28.5 -50.5t63.5 -16.5h1q44 0 146 40l29 -69l-364 -132
l-20 65l94 36q-58 54 -58 100q0 36 14.5 68.5t39 57.5t56 39.5t65.5 15.5q56 0 106 -44l-43 -63q-29 26 -70 26q-35 0 -61.5 -19.5t-26.5 -53.5z" />
    <glyph glyph-name="afii62837" unicode="&#xfee0;&#xfe84;" horiz-adv-x="1185" arabic-form="final" 
d="M174 302v919h169v-919h-169zM996 358q0 -52 13.5 -86t40 -54t66.5 -28t93 -9v-171q-155 4 -251 136q-98 -136 -259 -136h-405q-126 0 -126 146v14t1 11h515q46 0 73.5 12.5t42.5 37.5t20 61.5t5 84.5v844h171v-863zM176 1578q0 -34 28.5 -50.5t63.5 -16.5h1q44 0 146 40
l29 -69l-364 -132l-20 65l94 36q-58 54 -58 100q0 36 14.5 68.5t39 57.5t56 39.5t65.5 15.5q56 0 106 -44l-43 -63q-29 26 -70 26q-35 0 -61.5 -19.5t-26.5 -53.5z" />
    <glyph glyph-name="afii62838" unicode="&#xfedf;&#xfe88;" horiz-adv-x="1065" arabic-form="isolated" 
d="M224 -304q0 -35 28.5 -51t63.5 -16h1q44 0 146 40l29 -69l-364 -132l-20 65l94 36q-58 54 -58 100q0 36 14.5 68.5t39 57t56 39.5t65.5 16q56 0 106 -44l-43 -63q-29 26 -70 26q-35 0 -61.5 -19.5t-26.5 -53.5zM510 10q-84 0 -151 15t-114 49t-72.5 88.5t-25.5 133.5v925
h171v-844q0 -141 38 -171q26 -25 154 -25h171q80 0 119 52l1 1v1q18 42 18 142v844h164v-925q0 -137 -76.5 -211.5t-213.5 -74.5h-183z" />
    <glyph glyph-name="afii62839" unicode="&#xfee0;&#xfe88;" horiz-adv-x="1167" arabic-form="final" 
d="M156 302v919h169v-919h-169zM978 358q0 -52 13.5 -86t40 -54t66.5 -28t93 -9v-171q-155 4 -251 136q-98 -136 -259 -136h-405q-126 0 -126 146v14t1 11h515q46 0 73.5 12.5t42.5 37.5t20 61.5t5 84.5v844h171v-863zM227 -328q0 -35 28.5 -51t63.5 -16h1q44 0 146 40
l29 -69l-364 -132l-20 65l94 36q-58 54 -58 100q0 36 14.5 68.5t39 57t56 39.5t65.5 16q56 0 106 -44l-43 -63q-29 26 -70 26q-35 0 -61.5 -19.5t-26.5 -53.5z" />
    <glyph glyph-name="afii62840" unicode="&#xfedf;&#xfe8e;" horiz-adv-x="1071" arabic-form="isolated" 
d="M510 10q-84 0 -151 15t-114 49t-72.5 88.5t-25.5 133.5v925h171v-844q0 -141 38 -171q26 -25 154 -25h171q80 0 119 52l1 1v1q18 42 18 142v844h164v-925q0 -137 -76.5 -211.5t-213.5 -74.5h-183z" />
    <glyph glyph-name="afii62841" unicode="&#xfee0;&#xfe8e;" horiz-adv-x="1122" arabic-form="final" 
d="M111 302v919h169v-919h-169zM933 358q0 -52 13.5 -86t40 -54t66.5 -28t93 -9v-171q-155 4 -251 136q-98 -136 -259 -136h-405q-126 0 -126 146v14t1 11h515q46 0 73.5 12.5t42.5 37.5t20 61.5t5 84.5v844h171v-863z" />
    <glyph glyph-name="uni0675.fina" unicode="&#x675;" horiz-adv-x="550" 
d="M353 377q0 -36 1.5 -66.5t9 -54.5t23.5 -40t44 -24q18 -4 32.5 -6t30 -3t33.5 -1t42 -1v-171q-238 1 -325 91q-63 68 -63 195v898h172v-817zM210 1539q0 -34 28.5 -50.5t63.5 -16.5h1q44 0 146 40l29 -69l-364 -132l-20 65l94 36q-58 54 -58 100q0 36 14.5 68.5t39 57.5
t56 39.5t65.5 15.5q56 0 106 -44l-43 -63q-29 26 -70 26q-35 0 -61.5 -19.5t-26.5 -53.5z" />
    <glyph glyph-name="uni0676.fina" unicode="&#x676;" horiz-adv-x="951" 
d="M650 10q-114 0 -204 15t-152.5 55.5t-96 110.5t-33.5 179q0 229 113 329q72 57 221 57q214 0 296 -178q47 -112 47 -387v-10h130v-171h-130v-10q0 -72 -18.5 -134t-50 -113.5t-74.5 -92t-91 -68.5q-57 -33 -118.5 -50t-130.5 -17h-238l-26 168h233q147 0 240 93t93 214
v10h-10zM669 375q0 45 -12 84t-35 67.5t-57 44.5t-78 16q-148 0 -148 -207q0 -118 65 -160q62 -39 254 -39h11v194zM425 1159q0 -34 28.5 -50.5t63.5 -16.5h1q44 0 146 40l29 -69l-364 -132l-20 65l94 36q-58 54 -58 100q0 36 14.5 68.5t39 57.5t56 39.5t65.5 15.5
q56 0 106 -44l-43 -63q-29 26 -70 26q-35 0 -61.5 -19.5t-26.5 -53.5z" />
    <glyph glyph-name="uni0678.fina" unicode="&#x678;" horiz-adv-x="1373" 
d="M1217 10l9 -103q0 -159 -127 -271q-123 -111 -282 -111h-298q-213 0 -349 163q-115 155 -115 381v331h174v-408q0 -104 72 -194v-1h1q96 -104 261 -104h245q98 0 173 57q73 57 73 168q0 62 -97 78q-43 8 -117.5 11t-180.5 3l-14 171h749v-171h-177zM368 870
q0 -34 28.5 -50.5t63.5 -16.5h1q44 0 146 40l29 -69l-364 -132l-20 65l94 36q-58 54 -58 100q0 36 14.5 68.5t39 57.5t56 39.5t65.5 15.5q56 0 106 -44l-43 -63q-29 26 -70 26q-35 0 -61.5 -19.5t-26.5 -53.5z" />
    <glyph glyph-name="afii57459" unicode="&#x6a1;" horiz-adv-x="894" 
d="M649 514q0 44 -12.5 84t-36 71t-57.5 49t-78 18q-27 0 -53 -7t-46.5 -20.5t-32.5 -33.5t-12 -47q0 -95 59 -112q20 -12 130 -12h139v10zM831 320q0 -161 -109 -241q-88 -69 -180 -69h-566v171h569q119 0 119 154v10h-11q-262 0 -337 18q-152 64 -152 252q0 141 93 220
q96 81 225 81t228 -93q118 -103 118 -281z" />
    <glyph glyph-name="afii57374" unicode="&#x6a1;" horiz-adv-x="912" 
d="M445 592q-28 0 -57.5 -14t-53 -36.5t-38.5 -50.5t-15 -57q0 -121 200 -211l5 -4q63 51 95 97t32 95q0 31 -14.5 63t-38.5 58.5t-54 43t-61 16.5zM121 448q0 69 25 125.5t69.5 97t104 63t128.5 22.5q152 0 237 -102q79 -98 79 -228q0 -131 -75 -245h265v-169l-51 4h-51
l-136 3q-40 0 -77.5 3.5t-72.5 9.5l-90 31q-70 -53 -535 -53v171h297l-14 16q-103 121 -103 251z" />
    <glyph glyph-name="afii52258" unicode="&#x6a1;" horiz-adv-x="1725" 
d="M1473 411q0 31 -14 63t-37 58.5t-52 43t-60 16.5q-30 0 -60.5 -13t-55 -34.5t-40.5 -49.5t-16 -58q0 -116 204 -214l5 -3l4 4q122 75 122 187zM261 341q0 -77 39 -118.5t115 -41.5h686l-14 16q-103 121 -103 246q0 126 88 220q87 93 233 93q143 0 236 -103
q83 -100 83 -226q0 -132 -75 -246h192v-171q-316 0 -407 47q-10 -13 -27.5 -19.5t-40 -10t-49.5 -5t-55 -3.5q-41 -3 -88 -4t-101 -1l-638 -4q-104 0 -182 104q-61 94 -61 199v280h169v-252z" />
    <glyph glyph-name="uniFB51" unicode="&#x671;" horiz-adv-x="550" arabic-form="final" 
d="M353 377q0 -36 1.5 -66.5t9 -54.5t23.5 -40t44 -24q18 -4 32.5 -6t30 -3t33.5 -1t42 -1v-171q-238 1 -325 91q-63 68 -63 195v898h172v-817zM353 1388q-3 50 -42 50q-17 0 -46 -19l-83 -73h171v42zM311 1479q46 0 63.5 -27t19.5 -75l-1 -72h-315v41h51l120 104
q35 29 62 29z" />
    <glyph glyph-name="afii62958" unicode="&#x67e;" horiz-adv-x="1824" arabic-form="final" 
d="M269 341q0 -44 7.5 -74.5t24.5 -49.5t46.5 -27.5t72.5 -8.5h891q85 0 112 21h1q42 36 42 139v252h173v-252q0 -48 14.5 -78.5t41.5 -48.5t66 -25t88 -8v-171l-108 6l-81 11q-64 19 -104 65q-95 -82 -185 -82h-1010q-56 0 -104 26.5t-83.5 69t-56 97t-20.5 110.5v280h172
v-252zM1034 -191q24 0 45.5 -9.5t38 -26t26.5 -38t10 -44.5q0 -24 -9.5 -45.5t-26 -38t-38.5 -26t-46 -9.5t-45.5 9.5t-37.5 26t-25.5 38t-9.5 45.5t9.5 45t25.5 37.5t37.5 26t45.5 9.5zM843 -309q0 -23 -10 -44.5t-26.5 -38t-38 -26.5t-44.5 -10q-24 0 -45.5 9.5t-37 25.5
t-25 38t-9.5 46t9.5 45t25.5 37.5t37.5 26t44.5 9.5q24 0 45.5 -9.5t38 -26t26 -37.5t9.5 -45zM991 -601q0 -23 -10 -44.5t-26.5 -38t-38 -26.5t-44.5 -10q-24 0 -45.5 9.5t-37 25.5t-25 38t-9.5 46q0 23 9.5 44.5t25.5 38t37.5 26.5t44.5 10t44.5 -10t38 -26.5t26.5 -38
t10 -44.5z" />
    <glyph glyph-name="afii62956" unicode="&#x67e;" horiz-adv-x="623" arabic-form="initial" 
d="M546 313q0 -56 -21.5 -110.5t-58.5 -97t-86 -69t-105 -26.5h-300v171h240q101 0 138 52v1h1q15 26 15 107v252h177v-280zM480 -193q24 0 45.5 -9.5t38 -26t26.5 -38t10 -44.5q0 -24 -9.5 -45.5t-26 -38t-38.5 -26t-46 -9.5t-45.5 9.5t-37.5 26t-25.5 38t-9.5 45.5t9.5 45
t25.5 37.5t37.5 26t45.5 9.5zM289 -311q0 -23 -10 -44.5t-26.5 -38t-38 -26.5t-44.5 -10q-24 0 -45.5 9.5t-37 25.5t-25 38t-9.5 46t9.5 45t25.5 37.5t37.5 26t44.5 9.5q24 0 45.5 -9.5t38 -26t26 -37.5t9.5 -45zM437 -603q0 -23 -10 -44.5t-26.5 -38t-38 -26.5t-44.5 -10
q-24 0 -45.5 9.5t-37 25.5t-25 38t-9.5 46q0 23 9.5 44.5t25.5 38t37.5 26.5t44.5 10t44.5 -10t38 -26.5t26.5 -38t10 -44.5z" />
    <glyph glyph-name="afii52957" unicode="&#x67e;" horiz-adv-x="785" arabic-form="medial" 
d="M315 181q44 0 73 8t46 27t24 49.5t7 75.5v252h174v-252q0 -49 9 -80t29.5 -48.5t54 -24t83.5 -7.5v-171l-102 4l-55 8l-42 21l-60 48q-97 -81 -184 -81h-401v171h344zM580 -184q24 0 45.5 -9.5t38 -26t26.5 -38t10 -44.5q0 -24 -9.5 -45.5t-26 -38t-38.5 -26t-46 -9.5
t-45.5 9.5t-37.5 26t-25.5 38t-9.5 45.5t9.5 45t25.5 37.5t37.5 26t45.5 9.5zM389 -302q0 -23 -10 -44.5t-26.5 -38t-38 -26.5t-44.5 -10q-24 0 -45.5 9.5t-37 25.5t-25 38t-9.5 46t9.5 45t25.5 37.5t37.5 26t44.5 9.5q24 0 45.5 -9.5t38 -26t26 -37.5t9.5 -45zM537 -594
q0 -23 -10 -44.5t-26.5 -38t-38 -26.5t-44.5 -10q-24 0 -45.5 9.5t-37 25.5t-25 38t-9.5 46q0 23 9.5 44.5t25.5 38t37.5 26.5t44.5 10t44.5 -10t38 -26.5t26.5 -38t10 -44.5z" />
    <glyph glyph-name="afii62961" unicode="&#x686;" horiz-adv-x="1270" arabic-form="final" 
d="M1310 10q-59 1 -108.5 6.5t-88.5 20t-67.5 39t-46.5 62.5l-29 105l-389 -217q-260 -147 -260 -367q0 -158 131 -281q131 -122 277 -122h551l14 -175h-515q-296 0 -483 214q-136 167 -136 370v39l4 42q27 262 271 389l601 329q-51 93 -141 111q-79 15 -504 15l-25 166h451
q187 0 288.5 -96t103.5 -282l-177 -101q9 -63 86 -81q66 -15 192 -15v-171zM991 -120q24 0 45.5 -9.5t38 -26t26.5 -38t10 -44.5q0 -24 -9.5 -45.5t-26 -38t-38.5 -26t-46 -9.5t-45.5 9.5t-37.5 26t-25.5 38t-9.5 45.5t9.5 45t25.5 37.5t37.5 26t45.5 9.5zM800 -238
q0 -23 -10 -44.5t-26.5 -38t-38 -26.5t-44.5 -10q-24 0 -45.5 9.5t-37 25.5t-25 38t-9.5 46t9.5 45t25.5 37.5t37.5 26t44.5 9.5q24 0 45.5 -9.5t38 -26t26 -37.5t9.5 -45zM948 -530q0 -23 -10 -44.5t-26.5 -38t-38 -26.5t-44.5 -10q-24 0 -45.5 9.5t-37 25.5t-25 38
t-9.5 46q0 23 9.5 44.5t25.5 38t37.5 26.5t44.5 10t44.5 -10t38 -26.5t26.5 -38t10 -44.5z" />
    <glyph glyph-name="afii62959" unicode="&#x686;" horiz-adv-x="1099" arabic-form="initial" 
d="M615 131q-141 -80 -266 -101q-59 -10 -154 -15t-229 -5v171h142q112 0 148 10q121 14 228 62q32 14 80 39.5t111 64.5l190 104q-30 86 -143 114q-87 15 -489 15l-25 166h462q193 0 286 -93t95 -285zM752 -171q24 0 45.5 -9.5t38 -26t26.5 -38t10 -44.5q0 -24 -9.5 -45.5
t-26 -38t-38.5 -26t-46 -9.5t-45.5 9.5t-37.5 26t-25.5 38t-9.5 45.5t9.5 45t25.5 37.5t37.5 26t45.5 9.5zM561 -289q0 -23 -10 -44.5t-26.5 -38t-38 -26.5t-44.5 -10q-24 0 -45.5 9.5t-37 25.5t-25 38t-9.5 46t9.5 45t25.5 37.5t37.5 26t44.5 9.5q24 0 45.5 -9.5t38 -26
t26 -37.5t9.5 -45zM709 -581q0 -23 -10 -44.5t-26.5 -38t-38 -26.5t-44.5 -10q-24 0 -45.5 9.5t-37 25.5t-25 38t-9.5 46q0 23 9.5 44.5t25.5 38t37.5 26.5t44.5 10t44.5 -10t38 -26.5t26.5 -38t10 -44.5z" />
    <glyph glyph-name="afii62960" unicode="&#x686;" horiz-adv-x="1099" arabic-form="medial" 
d="M1120 10q-144 1 -211 35q-40 19 -73 86l-25 113q-89 -59 -187.5 -108.5t-208.5 -90.5q-134 -35 -449 -35v171h142q112 0 148 10q121 14 228 62q32 14 80 39.5t111 64.5l190 104q-30 86 -143 114q-87 15 -489 15l-25 166h462q186 0 282.5 -98t98.5 -282l-178 -98v-6
q0 -90 247 -91v-171zM730 -171q24 0 45.5 -9.5t38 -26t26.5 -38t10 -44.5q0 -24 -9.5 -45.5t-26 -38t-38.5 -26t-46 -9.5t-45.5 9.5t-37.5 26t-25.5 38t-9.5 45.5t9.5 45t25.5 37.5t37.5 26t45.5 9.5zM539 -289q0 -23 -10 -44.5t-26.5 -38t-38 -26.5t-44.5 -10
q-24 0 -45.5 9.5t-37 25.5t-25 38t-9.5 46t9.5 45t25.5 37.5t37.5 26t44.5 9.5q24 0 45.5 -9.5t38 -26t26 -37.5t9.5 -45zM687 -581q0 -23 -10 -44.5t-26.5 -38t-38 -26.5t-44.5 -10q-24 0 -45.5 9.5t-37 25.5t-25 38t-9.5 46q0 23 9.5 44.5t25.5 38t37.5 26.5t44.5 10
t44.5 -10t38 -26.5t26.5 -38t10 -44.5z" />
    <glyph glyph-name="afii62962" unicode="&#x698;" horiz-adv-x="976" arabic-form="final" 
d="M998 10q-128 3 -186 88l-19 28v-35q0 -259 -147 -430q-136 -136 -328 -136h-239l-31 168h252q121 0 222 83q100 85 100 210v607h168v-266q0 -143 208 -146v-171zM756 1036q23 0 45 -10t38.5 -26.5t26.5 -38t10 -44.5q0 -24 -10 -45.5t-26.5 -37.5t-38 -25.5t-45.5 -9.5
t-45.5 9.5t-37.5 25.5t-25.5 37.5t-9.5 45.5t9.5 45.5t26 38t37.5 26t45 9.5zM565 917q0 -24 -9.5 -45t-26 -37.5t-38 -26t-45.5 -9.5t-45.5 9.5t-37 25.5t-25 37.5t-9.5 45.5q0 23 9.5 44.5t25.5 38t37.5 26.5t44.5 10t44.5 -10t38 -26.5t26.5 -38t10 -44.5zM713 1209
q0 -23 -10 -44.5t-26.5 -38t-38 -26.5t-44.5 -10q-24 0 -45 9.5t-37 26t-25.5 38t-9.5 45.5q0 23 9.5 44.5t25.5 38t37.5 26.5t44.5 10t44.5 -10t38 -26.5t26.5 -38t10 -44.5z" />
    <glyph glyph-name="afii62964" unicode="&#x6a9;" horiz-adv-x="1876" arabic-form="final" 
d="M1916 10q-109 2 -183 40t-125 108q-27 -75 -85 -111.5t-160 -36.5h-1008q-57 0 -105 25.5t-83.5 68t-55 97t-19.5 112.5v280h173v-252q0 -45 7 -75.5t24.5 -49.5t47 -27t74.5 -8h934q106 0 106 80q0 43 -46 96l-468 522l-32 176l720 277l26 -153l-565 -210l535 -605
l139 -140q63 -42 149 -43v-171z" />
    <glyph glyph-name="afii52305" unicode="&#x6a9;" horiz-adv-x="898" arabic-form="initial" 
d="M758 407q53 -65 53 -149q0 -86 -72 -169q-79 -79 -225 -79h-548v171h548q120 0 120 81q0 37 -38 89l-505 528l-35 190l750 270l20 -164l-569 -211z" />
    <glyph glyph-name="afii52306" unicode="&#x6a9;" horiz-adv-x="1103" arabic-form="medial" 
d="M784 175q-18 -43 -35.5 -74.5t-43 -51.5t-63.5 -29.5t-97 -9.5h-564v171h543q110 0 110 81q0 42 -46 95l-479 521l-28 205l739 263l27 -171l-573 -211l544 -600q59 -66 101.5 -105.5t68.5 -56.5l1 -1l52 -16l72 -3v-172q-221 3 -318 150z" />
    <glyph glyph-name="afii62967" unicode="&#x6af;" horiz-adv-x="1876" arabic-form="final" 
d="M1916 10q-109 2 -183 40t-125 108q-27 -75 -85 -111.5t-160 -36.5h-1008q-57 0 -105 25.5t-83.5 68t-55 97t-19.5 112.5v280h173v-252q0 -45 7 -75.5t24.5 -49.5t47 -27t74.5 -8h934q106 0 106 80q0 43 -46 96l-468 522l-32 185l720 268l26 -153l-565 -210l535 -605
l139 -140q63 -42 149 -43v-171zM892 1177l-14 87l735 273l4 -83z" />
    <glyph glyph-name="afii62965" unicode="&#x6af;" horiz-adv-x="873" arabic-form="initial" 
d="M62 1222l-6 78l714 252l2 -74zM758 407q53 -65 53 -149q0 -86 -72 -169q-79 -79 -225 -79h-548v171h548q120 0 120 81q0 37 -38 89l-505 528l-36 204l749 262l22 -170l-569 -211z" />
    <glyph glyph-name="afii62966" unicode="&#x6af;" horiz-adv-x="1099" arabic-form="medial" 
d="M86 1215l-9 61l706 252l6 -57zM784 175q-18 -43 -35.5 -74.5t-43 -51.5t-63.5 -29.5t-97 -9.5h-564v171h543q110 0 110 81q0 42 -46 95l-479 521l-28 205l739 263l27 -171l-573 -211l544 -600q59 -66 101.5 -105.5t68.5 -56.5l1 -1l52 -16l72 -3v-172q-221 3 -318 150z
" />
    <glyph glyph-name="uniFBA4" unicode="&#x6c0;" horiz-adv-x="863" arabic-form="isolated" 
d="M442 151q37 0 70.5 14t58.5 38.5t40 57t15 69.5q0 66 -30 103l-164 172q-53 -53 -89.5 -93t-58.5 -69l-2 -1l-21 -42l-13 -67v-1q0 -39 44 -110v-3q59 -68 150 -68zM709 555q88 -110 88 -234q0 -126 -107 -230t-251 -104q-147 0 -249 106q-102 107 -102 253q0 103 61 207
l60 76l102 99l-57 67l116 116zM331 1292q0 -34 28.5 -50.5t63.5 -16.5h1q44 0 146 40l29 -69l-364 -132l-20 65l94 36q-58 54 -58 100q0 36 14.5 68.5t39 57.5t56 39.5t65.5 15.5q56 0 106 -44l-43 -63q-29 26 -70 26q-35 0 -61.5 -19.5t-26.5 -53.5z" />
    <glyph glyph-name="uniFBA5" unicode="&#x6c0;" horiz-adv-x="1186" arabic-form="final" 
d="M492 151q35 0 70 14.5t62.5 39t44.5 56.5t17 67q0 57 -36 114l-81 81q-27 27 -47 47.5t-34 34.5l-7 -8q-54 -49 -89 -87t-52 -65q-33 -52 -33 -109q0 -58 46 -119q48 -66 139 -66zM839 224q-54 -116 -139.5 -176.5t-210.5 -60.5q-144 0 -250 104q-105 104 -105 255
q0 101 72 207q18 29 59.5 74t97.5 101l-56 66l117 117l567 -603q38 -39 64.5 -65.5t43.5 -40.5h1l1 -1q39 -18 117 -20v-171q-136 1 -169 34h-1q-16 6 -209 180zM382 1260q0 -34 28.5 -50.5t63.5 -16.5h1q44 0 146 40l29 -69l-364 -132l-20 65l94 36q-58 54 -58 100
q0 36 14.5 68.5t39 57.5t56 39.5t65.5 15.5q56 0 106 -44l-43 -63q-29 26 -70 26q-35 0 -61.5 -19.5t-26.5 -53.5z" />
    <glyph glyph-name="uniFBA6" unicode="&#x6c1;" horiz-adv-x="491" arabic-form="isolated" 
d="M452 151q37 0 70.5 14t58.5 38.5t40 57t15 69.5q0 66 -30 103l-164 172q-53 -53 -89.5 -93t-58.5 -69l-2 -1l-21 -42l-13 -67v-1q0 -39 44 -110v-3q59 -68 150 -68zM719 555q88 -110 88 -234q0 -126 -107 -230t-251 -104q-147 0 -249 106q-102 107 -102 253q0 103 61 207
l60 76l102 99l-57 67l116 116z" />
    <glyph glyph-name="afii62827" unicode="&#x6be;" horiz-adv-x="851" arabic-form="final" 
d="M554 289q-1 -31 -6 -53t-14.5 -42t-23 -40t-33.5 -46l15 -14q92 87 184 87h194v-171h-136q-37 0 -72.5 -11.5t-63 -33t-44.5 -51.5t-17 -67v-1l3 -31l43 -188l-165 -50l-49 237l-4 38q0 98 91 203l-16 14q-68 -59 -169 -59h-322v171h261q94 0 148 54q23 29 38 113l32 199
l172 -30l-46 -227v-1z" />
    <glyph glyph-name="uniFBE5" unicode="&#x6d0;" horiz-adv-x="1029" arabic-form="final" 
d="M1217 10l9 -103q0 -159 -127 -271q-123 -111 -282 -111h-298q-213 0 -349 163q-115 155 -115 381v331h174v-408q0 -104 72 -194v-1h1q96 -104 261 -104h245q98 0 173 57q73 57 73 168q0 62 -97 78q-43 8 -117.5 11t-180.5 3l-14 171h749v-171h-177z" />
    <glyph glyph-name="afii52364" unicode="&#x6cc;" horiz-adv-x="1373" arabic-form="final" 
d="M1217 10l9 -103q0 -159 -127 -271q-123 -111 -282 -111h-298q-213 0 -349 163q-115 155 -115 381v331h174v-408q0 -104 72 -194v-1h1q96 -104 261 -104h245q98 0 173 57q73 57 73 168q0 62 -97 78q-43 8 -117.5 11t-180.5 3l-14 171h749v-171h-177z" />
    <glyph glyph-name="uniFBFE" unicode="&#x6cc;" horiz-adv-x="623" arabic-form="initial" 
d="M546 313q0 -56 -21.5 -110.5t-58.5 -97t-86 -69t-105 -26.5h-300v171h240q101 0 138 52v1h1q15 26 15 107v252h177v-280zM164 -194q23 0 44.5 -10t38 -26.5t26.5 -38t10 -44.5q0 -20 -9 -41t-24 -38t-34 -27.5t-39 -10.5q-63 0 -97 34t-34 97q0 19 11 38t28.5 34t38.5 24
t40 9zM457 -194q23 0 45 -10t38.5 -26.5t26.5 -38t10 -44.5q0 -20 -9 -41t-24 -38t-34 -27.5t-39 -10.5q-63 0 -97.5 33.5t-34.5 97.5q0 20 11 39t28 33.5t38 23.5t41 9z" />
    <glyph glyph-name="afii62832" unicode="&#x6cc;" horiz-adv-x="785" arabic-form="medial" 
d="M315 181q44 0 73 8t46 27t24 49.5t7 75.5v252h174v-252q0 -49 9 -80t29.5 -48.5t54 -24t83.5 -7.5v-171l-102 4l-55 8l-42 21l-60 48q-97 -81 -184 -81h-401v171h344zM238 -190q23 0 44.5 -10t38 -26.5t26.5 -38t10 -44.5q0 -20 -9 -41t-24 -38t-34 -27.5t-39 -10.5
q-63 0 -97 34t-34 97q0 19 11 38t28.5 34t38.5 24t40 9zM531 -190q23 0 45 -10t38.5 -26.5t26.5 -38t10 -44.5q0 -20 -9 -41t-24 -38t-34 -27.5t-39 -10.5q-63 0 -97.5 33.5t-34.5 97.5q0 20 11 39t28 33.5t38 23.5t41 9z" />
    <glyph glyph-name="uniFC5D" unicode="&#xfc5d;" horiz-adv-x="1373" arabic-form="isolated" 
d="M692 350q0 66 26.5 126t71 106t103.5 73t125 27h224l9 -157h-225q-102 0 -152 -101l-1 -1q-11 -41 -17.5 -95.5t-6.5 -125.5v-11h11q253 0 344 -44q97 -52 97 -209q0 -124 -36 -196l-1 -1q-21 -83 -105 -162q-134 -128 -321 -128h-296q-179 0 -314 147q-131 143 -131 340
v383h159v-408q0 -131 115 -228q95 -67 209 -67h250q103 0 199 69q105 90 105 192q0 105 -80 131q-37 11 -127 17.5t-235 6.5v316zM406 628v275h67v-275h-67z" />
    <glyph glyph-name="afii62882" unicode="&#xfc5e;" arabic-form="isolated" 
d="M-86 80q22 0 37 9.5t15 30.5v103h60v-103q0 -44 58 -44h10q39 2 39 37v110h63v-99q-3 -52 -19 -68h-1q-30 -35 -77 -35h-5q-52 0 -96 44q-14 -25 -32 -36.5t-56 -11.5q-112 0 -112 107v99h60v-104q4 -39 56 -39zM-75 675q0 30 11 57.5t30 48t45 32.5t57 12q28 0 54 -11
t45.5 -30t31.5 -44t12 -53v-7q0 -104 -77 -154l-333 -188l-40 66q20 11 34 20.5t23 15.5q29 19 29 49q0 20 -12 29t-31 11h-7q-39 0 -90 -10l-9 68q22 4 42 5.5t38 1.5q66 0 96 -25t33 -86l107 65q-38 20 -63.5 47.5t-25.5 79.5zM140 676q0 29 -21.5 51t-50.5 22
q-30 0 -51 -21.5t-21 -51.5q0 -29 21.5 -50t50.5 -21q30 0 51 20.5t21 50.5z" />
    <glyph glyph-name="afii62883" unicode="&#xfc5f;" arabic-form="isolated" 
d="M-84 437q22 0 37 9.5t15 30.5v103h60v-103q0 -44 58 -44h10q39 2 39 37v110h63v-99q-3 -52 -19 -68h-1q-30 -35 -77 -35h-5q-52 0 -96 44q-14 -25 -32 -36.5t-56 -11.5q-112 0 -112 107v99h60v-104q4 -39 56 -39zM203 175v-61l-437 -111v58zM203 326v-61l-437 -111v59z
" />
    <glyph glyph-name="afii62884" unicode="&#xfc60;" arabic-form="isolated" 
d="M-86 80q22 0 37 9.5t15 30.5v103h60v-103q0 -44 58 -44h10q39 2 39 37v110h63v-99q-3 -52 -19 -68h-1q-30 -35 -77 -35h-5q-52 0 -96 44q-14 -25 -32 -36.5t-56 -11.5q-112 0 -112 107v99h60v-104q4 -39 56 -39zM200 528v-61l-437 -111v59z" />
    <glyph glyph-name="afii62885" unicode="&#xfc61;" arabic-form="isolated" 
d="M-86 80q22 0 37 9.5t15 30.5v103h60v-103q0 -44 58 -44h10q39 2 39 37v110h63v-99q-3 -52 -19 -68h-1q-30 -35 -77 -35h-5q-52 0 -96 44q-14 -25 -32 -36.5t-56 -11.5q-112 0 -112 107v99h60v-104q4 -39 56 -39zM-88 674q0 30 11 57.5t30.5 48t46 32.5t56.5 12
q28 0 54 -11t45.5 -30t31 -44.5t11.5 -53.5v-6q0 -103 -76 -154l-334 -188l-40 66l254 143l-17 9q-73 37 -73 119zM127 675q0 29 -21 50.5t-50 21.5t-51 -21.5t-22 -50.5q0 -30 21.5 -50.5t51.5 -20.5t50.5 21t20.5 50z" />
    <glyph glyph-name="afii62886" unicode="&#xfc62;" arabic-form="isolated" 
d="M-81 389q22 0 37 9.5t15 30.5v103h60v-103q0 -44 58 -44h10q39 2 39 37v110h63v-99q-3 -52 -19 -68h-1q-30 -35 -77 -35h-5q-52 0 -96 44q-14 -25 -32 -36.5t-56 -11.5q-112 0 -112 107v99h60v-104q4 -39 56 -39zM213 188v-61l-437 -111v59z" />
    <glyph glyph-name="uniFC63" unicode="&#xfc63;" arabic-form="isolated" 
d="M-86 80q22 0 37 9.5t15 30.5v103h60v-103q0 -44 58 -44h10q39 2 39 37v110h63v-99q-3 -52 -19 -68h-1q-30 -35 -77 -35h-5q-52 0 -96 44q-14 -25 -32 -36.5t-56 -11.5q-112 0 -112 107v99h60v-104q4 -39 56 -39zM-31 322v275h67v-275h-67z" />
    <glyph glyph-name="uniFCF2" unicode="&#xfcf2;" horiz-adv-x="498" arabic-form="medial" 
d="M158 490q22 0 37 9.5t15 30.5v103h60v-103q0 -44 58 -44h10q39 2 39 37v110h63v-99q-3 -52 -19 -68h-1q-30 -35 -77 -35h-5q-52 0 -96 44q-14 -25 -32 -36.5t-56 -11.5q-112 0 -112 107v99h60v-104q5 -39 56 -39zM442 913v-61l-437 -111v59zM-13 10v171h531v-171h-531z
" />
    <glyph glyph-name="uniFCF3" unicode="&#xfcf3;" horiz-adv-x="498" arabic-form="medial" 
d="M159 466q22 0 37 9.5t15 30.5v103h60v-103q0 -44 58 -44h10q39 2 39 37v110h63v-99q-3 -52 -19 -68h-1q-30 -35 -77 -35h-5q-52 0 -96 44q-14 -25 -32 -36.5t-56 -11.5q-112 0 -112 107v99h60v-104q5 -39 56 -39zM178 1072q0 30 11 57.5t30.5 48t46 32.5t56.5 12
q28 0 54 -11t45.5 -30t31 -44.5t11.5 -53.5v-6q0 -103 -76 -154l-334 -188l-40 66l254 143l-17 9q-73 37 -73 119zM393 1073q0 29 -21 50.5t-50 21.5t-51 -21.5t-22 -50.5q0 -30 21.5 -50.5t51.5 -20.5t50.5 21t20.5 50zM-13 10v171h531v-171h-531z" />
    <glyph glyph-name="uniFCF4" unicode="&#xfcf4;" horiz-adv-x="498" arabic-form="medial" 
d="M166 708q22 0 37 9.5t15 30.5v103h60v-103q0 -44 58 -44h10q39 2 39 37v110h63v-99q-3 -52 -19 -68h-1q-30 -35 -77 -35h-5q-52 0 -96 44q-14 -25 -32 -36.5t-56 -11.5q-112 0 -112 107v99h60v-104q5 -39 56 -39zM459 517v-61l-437 -111v59zM-13 10v171h531v-171h-531z
" />
    <glyph glyph-name="uniFE71" unicode="&#xfe71;" horiz-adv-x="498" arabic-form="medial" 
d="M475 582v-61l-437 -111v59zM475 733v-61l-437 -111v59zM-13 10v171h531v-171h-531z" />
    <glyph glyph-name="uniFE77" unicode="&#xfe77;" horiz-adv-x="498" arabic-form="medial" 
d="M461 627v-61l-437 -111v59zM-13 10v171h531v-171h-531z" />
    <glyph glyph-name="uniFE79" unicode="&#xfe79;" horiz-adv-x="498" arabic-form="medial" 
d="M184 802q0 30 11 57.5t30.5 48t46 32.5t56.5 12q28 0 54 -11t45.5 -30t31 -44.5t11.5 -53.5v-6q0 -103 -76 -154l-334 -188l-40 66l254 143l-17 9q-73 37 -73 119zM399 803q0 29 -21 50.5t-50 21.5t-51 -21.5t-22 -50.5q0 -30 21.5 -50.5t51.5 -20.5t50.5 21t20.5 50z
M-13 10v171h531v-171h-531z" />
    <glyph glyph-name="uniFE7B" unicode="&#xfe7b;" horiz-adv-x="498" arabic-form="medial" 
d="M464 -253v-61l-437 -111v59zM-13 10v171h531v-171h-531z" />
    <glyph glyph-name="uniFE7D" unicode="&#xfe7d;" horiz-adv-x="498" arabic-form="medial" 
d="M189 590q22 0 37 9.5t15 30.5v103h60v-103q0 -44 58 -44h10q39 2 39 37v110h63v-99q-3 -52 -19 -68h-1q-30 -35 -77 -35h-5q-52 0 -96 44q-14 -25 -32 -36.5t-56 -11.5q-112 0 -112 107v99h60v-104q5 -39 56 -39zM-13 10v171h531v-171h-531z" />
    <glyph glyph-name="uniFE7F" unicode="&#xfe7f;" horiz-adv-x="498" arabic-form="medial" 
d="M80 655q0 39 13.5 74t37.5 61.5t57 42.5t71 16h8q38 0 70.5 -16t56.5 -42.5t37.5 -61.5t13.5 -73q0 -39 -14 -73.5t-38.5 -61t-58 -41.5t-72.5 -15t-72.5 15t-57.5 40.5t-38 60.5t-14 74zM380 653q0 24 -9.5 46t-25 39t-36.5 27.5t-45 10.5q-23 0 -43.5 -10.5
t-36.5 -27.5t-25 -39.5t-9 -45.5q0 -24 9 -46t24 -38.5t36 -26.5t45 -10t45 10t37 26.5t25 38.5t9 46zM-13 10v171h531v-171h-531z" />
    <glyph glyph-name="afii52399" unicode="&#x621;" horiz-adv-x="799" arabic-form="isolated" 
d="M531 366q-36 0 -59 -22t-23 -58q0 -31 16.5 -55.5t48.5 -24.5q55 0 167 54l45 -96l-436 -183l-32 90l166 68l-18 11q-37 21 -54 53.5t-17 89.5q2 36 18 69t42 58.5t59.5 40.5t71.5 15q70 0 125 -47l-43 -91q-46 28 -77 28z" />
    <glyph glyph-name="afii62753" unicode="&#x622;" horiz-adv-x="550" arabic-form="final" 
d="M166 1350q-75 0 -113 -38q-37 -37 -69 -98l-130 48q61 143 105 176q21 18 40.5 29.5t41.5 19t49.5 11t64.5 4.5h407v-152h-396zM353 377q0 -36 1.5 -66.5t9 -54.5t23.5 -40t44 -24q18 -4 32.5 -6t30 -3t33.5 -1t42 -1v-171q-238 1 -325 91q-63 68 -63 195v898h172v-817z
" />
    <glyph glyph-name="afii62754" unicode="&#x623;" horiz-adv-x="550" arabic-form="final" 
d="M201 1545q0 -34 28.5 -50.5t63.5 -16.5h1q44 0 146 40l29 -69l-364 -132l-20 65l94 36q-58 54 -58 100q0 36 14.5 68.5t39 57.5t56 39.5t65.5 15.5q56 0 106 -44l-43 -63q-29 26 -70 26q-35 0 -61.5 -19.5t-26.5 -53.5zM353 377q0 -36 1.5 -66.5t9 -54.5t23.5 -40t44 -24
q18 -4 32.5 -6t30 -3t33.5 -1t42 -1v-171q-238 1 -325 91q-63 68 -63 195v898h172v-817z" />
    <glyph glyph-name="afii62755" unicode="&#x624;" horiz-adv-x="951" arabic-form="final" 
d="M650 10q-114 0 -204 15t-152.5 55.5t-96 110.5t-33.5 179q0 229 113 329q72 57 221 57q214 0 296 -178q47 -112 47 -387v-10h130v-171h-130v-10q0 -72 -18.5 -134t-50 -113.5t-74.5 -92t-91 -68.5q-57 -33 -118.5 -50t-130.5 -17h-238l-26 168h233q147 0 240 93t93 214
v10h-10zM669 375q0 45 -12 84t-35 67.5t-57 44.5t-78 16q-148 0 -148 -207q0 -118 65 -160q62 -39 254 -39h11v194zM390 1141q0 -34 28.5 -50.5t63.5 -16.5h1q44 0 146 40l29 -69l-364 -132l-20 65l94 36q-58 54 -58 100q0 36 14.5 68.5t39 57.5t56 39.5t65.5 15.5
q56 0 106 -44l-43 -63q-29 26 -70 26q-35 0 -61.5 -19.5t-26.5 -53.5z" />
    <glyph glyph-name="afii62756" unicode="&#x625;" horiz-adv-x="550" arabic-form="final" 
d="M353 377q0 -36 1.5 -66.5t9 -54.5t23.5 -40t44 -24q18 -4 32.5 -6t30 -3t33.5 -1t42 -1v-171q-238 1 -325 91q-63 68 -63 195v898h172v-817zM224 -285q0 -35 28.5 -51t63.5 -16h1q44 0 146 40l29 -69l-364 -132l-20 65l94 36q-58 54 -58 100q0 36 14.5 68.5t39 57
t56 39.5t65.5 16q56 0 106 -44l-43 -63q-29 26 -70 26q-35 0 -61.5 -19.5t-26.5 -53.5z" />
    <glyph glyph-name="afii62759" unicode="&#x626;" horiz-adv-x="1373" arabic-form="final" 
d="M1217 10l9 -103q0 -159 -127 -271q-123 -111 -282 -111h-298q-213 0 -349 163q-115 155 -115 381v331h174v-408q0 -104 72 -194v-1h1q96 -104 261 -104h245q98 0 173 57q73 57 73 168q0 62 -97 78q-43 8 -117.5 11t-180.5 3l-14 171h749v-171h-177zM462 847
q0 -34 28.5 -50.5t63.5 -16.5h1q44 0 146 40l29 -69l-364 -132l-20 65l94 36q-58 54 -58 100q0 36 14.5 68.5t39 57.5t56 39.5t65.5 15.5q56 0 106 -44l-43 -63q-29 26 -70 26q-35 0 -61.5 -19.5t-26.5 -53.5z" />
    <glyph glyph-name="afii62757" unicode="&#x626;" horiz-adv-x="623" arabic-form="initial" 
d="M546 313q0 -56 -21.5 -110.5t-58.5 -97t-86 -69t-105 -26.5h-300v171h240q101 0 138 52v1h1q15 26 15 107v252h177v-280zM302 1010q0 -34 28.5 -50.5t63.5 -16.5h1q44 0 146 40l29 -69l-364 -132l-20 65l94 36q-58 54 -58 100q0 36 14.5 68.5t39 57.5t56 39.5t65.5 15.5
q56 0 106 -44l-43 -63q-29 26 -70 26q-35 0 -61.5 -19.5t-26.5 -53.5z" />
    <glyph glyph-name="afii62758" unicode="&#x626;" horiz-adv-x="785" arabic-form="medial" 
d="M350 991q0 -34 28.5 -50.5t63.5 -16.5h1q44 0 146 40l29 -69l-364 -132l-20 65l94 36q-58 54 -58 100q0 36 14.5 68.5t39 57.5t56 39.5t65.5 15.5q56 0 106 -44l-43 -63q-29 26 -70 26q-35 0 -61.5 -19.5t-26.5 -53.5zM315 181q44 0 73 8t46 27t24 49.5t7 75.5v252h174
v-252q0 -49 9 -80t29.5 -48.5t54 -24t83.5 -7.5v-171l-102 4l-55 8l-42 21l-60 48q-97 -81 -184 -81h-401v171h344z" />
    <glyph glyph-name="afii57415" unicode="&#x627;" horiz-adv-x="476" arabic-form="isolated" 
d="M220 10v1211h171v-1211h-171z" />
    <glyph glyph-name="afii62760" unicode="&#x627;" horiz-adv-x="550" arabic-form="final" 
d="M353 377q0 -36 1.5 -66.5t9 -54.5t23.5 -40t44 -24q18 -4 32.5 -6t30 -3t33.5 -1t42 -1v-171q-238 1 -325 91q-63 68 -63 195v898h172v-817z" />
    <glyph glyph-name="afii62763" unicode="&#x628;" horiz-adv-x="1824" arabic-form="final" 
d="M269 341q0 -44 7.5 -74.5t24.5 -49.5t46.5 -27.5t72.5 -8.5h891q85 0 112 21h1q42 36 42 139v252h173v-252q0 -48 14.5 -78.5t41.5 -48.5t66 -25t88 -8v-171l-108 6l-81 11q-64 19 -104 65q-95 -82 -185 -82h-1010q-56 0 -104 26.5t-83.5 69t-56 97t-20.5 110.5v280h172
v-252zM823 -192q20 0 41.5 -9t38.5 -23.5t28 -33.5t11 -39q0 -24 -7.5 -47.5t-21.5 -42t-33.5 -30t-42.5 -11.5q-64 0 -98.5 33.5t-34.5 97.5q0 19 11.5 38t28.5 34t38.5 24t40.5 9z" />
    <glyph glyph-name="afii62761" unicode="&#x628;" horiz-adv-x="623" arabic-form="initial" 
d="M328 -193q20 0 41.5 -9t38.5 -23.5t28 -33.5t11 -39q0 -24 -7.5 -47.5t-21.5 -42t-33.5 -30t-42.5 -11.5q-64 0 -98.5 33.5t-34.5 97.5q0 19 11.5 38t28.5 34t38.5 24t40.5 9zM546 313q0 -56 -21.5 -110.5t-58.5 -97t-86 -69t-105 -26.5h-300v171h240q101 0 138 52v1h1
q15 26 15 107v252h177v-280z" />
    <glyph glyph-name="afii62762" unicode="&#x628;" horiz-adv-x="785" arabic-form="medial" 
d="M450 -197q20 0 41.5 -9t38.5 -23.5t28 -33.5t11 -39q0 -24 -7.5 -47.5t-21.5 -42t-33.5 -30t-42.5 -11.5q-64 0 -98.5 33.5t-34.5 97.5q0 19 11.5 38t28.5 34t38.5 24t40.5 9zM315 181q44 0 73 8t46 27t24 49.5t7 75.5v252h174v-252q0 -49 9 -80t29.5 -48.5t54 -24
t83.5 -7.5v-171l-102 4l-55 8l-42 21l-60 48q-97 -81 -184 -81h-401v171h344z" />
    <glyph glyph-name="afii62764" unicode="&#x629;" horiz-adv-x="1186" arabic-form="final" 
d="M492 151q35 0 70 14.5t62.5 39t44.5 56.5t17 67q0 57 -36 114l-81 81q-27 27 -47 47.5t-34 34.5l-7 -8q-54 -49 -89 -87t-52 -65q-33 -52 -33 -109q0 -58 46 -119q48 -66 139 -66zM839 224q-54 -116 -139.5 -176.5t-210.5 -60.5q-144 0 -250 104q-105 104 -105 255
q0 101 72 207q18 29 59.5 74t97.5 101l-56 66l117 117l567 -603q38 -39 64.5 -65.5t43.5 -40.5h1l1 -1q39 -18 117 -20v-171q-136 1 -169 34h-1q-16 6 -209 180zM236 1304q23 0 44.5 -10t38 -26.5t26.5 -38t10 -44.5q0 -20 -9 -41t-24 -38t-34 -27.5t-39 -10.5q-63 0 -97 34
t-34 97q0 19 11 38t28.5 34t38.5 24t40 9zM529 1304q23 0 45 -10t38.5 -26.5t26.5 -38t10 -44.5q0 -20 -9 -41t-24 -38t-34 -27.5t-39 -10.5q-63 0 -97.5 33.5t-34.5 97.5q0 20 11 39t28 33.5t38 23.5t41 9z" />
    <glyph glyph-name="afii62767" unicode="&#x62a;" horiz-adv-x="1824" arabic-form="final" 
d="M269 341q0 -44 7.5 -74.5t24.5 -49.5t46.5 -27.5t72.5 -8.5h891q85 0 112 21h1q42 36 42 139v252h173v-252q0 -48 14.5 -78.5t41.5 -48.5t66 -25t88 -8v-171l-108 6l-81 11q-64 19 -104 65q-95 -82 -185 -82h-1010q-56 0 -104 26.5t-83.5 69t-56 97t-20.5 110.5v280h172
v-252zM741 1027q23 0 44.5 -10t38 -26.5t26.5 -38t10 -44.5q0 -20 -9 -41t-24 -38t-34 -27.5t-39 -10.5q-63 0 -97 34t-34 97q0 19 11 38t28.5 34t38.5 24t40 9zM1034 1027q23 0 45 -10t38.5 -26.5t26.5 -38t10 -44.5q0 -20 -9 -41t-24 -38t-34 -27.5t-39 -10.5
q-63 0 -97.5 33.5t-34.5 97.5q0 20 11 39t28 33.5t38 23.5t41 9z" />
    <glyph glyph-name="afii62765" unicode="&#x62a;" horiz-adv-x="623" arabic-form="initial" 
d="M546 313q0 -56 -21.5 -110.5t-58.5 -97t-86 -69t-105 -26.5h-300v171h240q101 0 138 52v1h1q15 26 15 107v252h177v-280zM147 1048q23 0 44.5 -10t38 -26.5t26.5 -38t10 -44.5q0 -20 -9 -41t-24 -38t-34 -27.5t-39 -10.5q-63 0 -97 34t-34 97q0 19 11 38t28.5 34t38.5 24
t40 9zM440 1048q23 0 45 -10t38.5 -26.5t26.5 -38t10 -44.5q0 -20 -9 -41t-24 -38t-34 -27.5t-39 -10.5q-63 0 -97.5 33.5t-34.5 97.5q0 20 11 39t28 33.5t38 23.5t41 9z" />
    <glyph glyph-name="afii62766" unicode="&#x62a;" horiz-adv-x="785" arabic-form="medial" 
d="M315 181q44 0 73 8t46 27t24 49.5t7 75.5v252h174v-252q0 -49 9 -80t29.5 -48.5t54 -24t83.5 -7.5v-171l-102 4l-55 8l-42 21l-60 48q-97 -81 -184 -81h-401v171h344zM213 1027q23 0 44.5 -10t38 -26.5t26.5 -38t10 -44.5q0 -20 -9 -41t-24 -38t-34 -27.5t-39 -10.5
q-63 0 -97 34t-34 97q0 19 11 38t28.5 34t38.5 24t40 9zM506 1027q23 0 45 -10t38.5 -26.5t26.5 -38t10 -44.5q0 -20 -9 -41t-24 -38t-34 -27.5t-39 -10.5q-63 0 -97.5 33.5t-34.5 97.5q0 20 11 39t28 33.5t38 23.5t41 9z" />
    <glyph glyph-name="afii62770" unicode="&#x62b;" horiz-adv-x="1824" arabic-form="final" 
d="M269 341q0 -44 7.5 -74.5t24.5 -49.5t46.5 -27.5t72.5 -8.5h891q85 0 112 21h1q42 36 42 139v252h173v-252q0 -48 14.5 -78.5t41.5 -48.5t66 -25t88 -8v-171l-108 6l-81 11q-64 19 -104 65q-95 -82 -185 -82h-1010q-56 0 -104 26.5t-83.5 69t-56 97t-20.5 110.5v280h172
v-252zM1022 1025q23 0 45 -10t38.5 -26.5t26.5 -38t10 -44.5q0 -24 -10 -45.5t-26.5 -37.5t-38 -25.5t-45.5 -9.5t-45.5 9.5t-37.5 25.5t-25.5 37.5t-9.5 45.5t9.5 45.5t26 38t37.5 26t45 9.5zM831 906q0 -24 -9.5 -45t-26 -37.5t-38 -26t-45.5 -9.5t-45.5 9.5t-37 25.5
t-25 37.5t-9.5 45.5q0 23 9.5 44.5t25.5 38t37.5 26.5t44.5 10t44.5 -10t38 -26.5t26.5 -38t10 -44.5zM979 1198q0 -23 -10 -44.5t-26.5 -38t-38 -26.5t-44.5 -10q-24 0 -45 9.5t-37 26t-25.5 38t-9.5 45.5q0 23 9.5 44.5t25.5 38t37.5 26.5t44.5 10t44.5 -10t38 -26.5
t26.5 -38t10 -44.5z" />
    <glyph glyph-name="afii62768" unicode="&#x62b;" horiz-adv-x="623" arabic-form="initial" 
d="M546 313q0 -56 -21.5 -110.5t-58.5 -97t-86 -69t-105 -26.5h-300v171h240q101 0 138 52v1h1q15 26 15 107v252h177v-280zM440 1046q23 0 45 -10t38.5 -26.5t26.5 -38t10 -44.5q0 -24 -10 -45.5t-26.5 -37.5t-38 -25.5t-45.5 -9.5t-45.5 9.5t-37.5 25.5t-25.5 37.5
t-9.5 45.5t9.5 45.5t26 38t37.5 26t45 9.5zM249 927q0 -24 -9.5 -45t-26 -37.5t-38 -26t-45.5 -9.5t-45.5 9.5t-37 25.5t-25 37.5t-9.5 45.5q0 23 9.5 44.5t25.5 38t37.5 26.5t44.5 10t44.5 -10t38 -26.5t26.5 -38t10 -44.5zM397 1219q0 -23 -10 -44.5t-26.5 -38t-38 -26.5
t-44.5 -10q-24 0 -45 9.5t-37 26t-25.5 38t-9.5 45.5q0 23 9.5 44.5t25.5 38t37.5 26.5t44.5 10t44.5 -10t38 -26.5t26.5 -38t10 -44.5z" />
    <glyph glyph-name="afii62769" unicode="&#x62b;" horiz-adv-x="785" arabic-form="medial" 
d="M315 181q44 0 73 8t46 27t24 49.5t7 75.5v252h174v-252q0 -49 9 -80t29.5 -48.5t54 -24t83.5 -7.5v-171l-102 4l-55 8l-42 21l-60 48q-97 -81 -184 -81h-401v171h344zM577 1025q23 0 45 -10t38.5 -26.5t26.5 -38t10 -44.5q0 -24 -10 -45.5t-26.5 -37.5t-38 -25.5
t-45.5 -9.5t-45.5 9.5t-37.5 25.5t-25.5 37.5t-9.5 45.5t9.5 45.5t26 38t37.5 26t45 9.5zM386 906q0 -24 -9.5 -45t-26 -37.5t-38 -26t-45.5 -9.5t-45.5 9.5t-37 25.5t-25 37.5t-9.5 45.5q0 23 9.5 44.5t25.5 38t37.5 26.5t44.5 10t44.5 -10t38 -26.5t26.5 -38t10 -44.5z
M534 1198q0 -23 -10 -44.5t-26.5 -38t-38 -26.5t-44.5 -10q-24 0 -45 9.5t-37 26t-25.5 38t-9.5 45.5q0 23 9.5 44.5t25.5 38t37.5 26.5t44.5 10t44.5 -10t38 -26.5t26.5 -38t10 -44.5z" />
    <glyph glyph-name="afii62773" unicode="&#x62c;" horiz-adv-x="1270" arabic-form="final" 
d="M806 -240q20 0 41.5 -9t38.5 -23.5t28 -33.5t11 -39q0 -24 -7.5 -47.5t-21.5 -42t-33.5 -30t-42.5 -11.5q-64 0 -98.5 33.5t-34.5 97.5q0 19 11.5 38t28.5 34t38.5 24t40.5 9zM1310 10q-59 1 -108.5 6.5t-88.5 20t-67.5 39t-46.5 62.5l-29 105l-389 -217
q-260 -147 -260 -367q0 -158 131 -281q131 -122 277 -122h551l14 -175h-515q-296 0 -483 214q-136 167 -136 370v39l4 42q27 262 271 389l601 329q-51 93 -141 111q-79 15 -504 15l-25 166h451q187 0 288.5 -96t103.5 -282l-177 -101q9 -63 86 -81q66 -15 192 -15v-171z" />
    <glyph glyph-name="afii62771" unicode="&#x62c;" horiz-adv-x="1099" arabic-form="initial" 
d="M615 131q-141 -80 -266 -101q-59 -10 -154 -15t-229 -5v171h142q112 0 148 10q121 14 228 62q32 14 80 39.5t111 64.5l190 104q-30 86 -143 114q-87 15 -489 15l-25 166h462q193 0 286 -93t95 -285zM680 -172q20 0 41.5 -9t38.5 -23.5t28 -33.5t11 -39q0 -24 -7.5 -47.5
t-21.5 -42t-33.5 -30t-42.5 -11.5q-64 0 -98.5 33.5t-34.5 97.5q0 19 11.5 38t28.5 34t38.5 24t40.5 9z" />
    <glyph glyph-name="afii62772" unicode="&#x62c;" horiz-adv-x="1099" arabic-form="medial" 
d="M1120 10q-144 1 -211 35q-40 19 -73 86l-25 113q-89 -59 -187.5 -108.5t-208.5 -90.5q-134 -35 -449 -35v171h142q112 0 148 10q121 14 228 62q32 14 80 39.5t111 64.5l190 104q-30 86 -143 114q-87 15 -489 15l-25 166h462q186 0 282.5 -98t98.5 -282l-178 -98v-6
q0 -90 247 -91v-171zM592 -191q20 0 41.5 -9t38.5 -23.5t28 -33.5t11 -39q0 -24 -7.5 -47.5t-21.5 -42t-33.5 -30t-42.5 -11.5q-64 0 -98.5 33.5t-34.5 97.5q0 19 11.5 38t28.5 34t38.5 24t40.5 9z" />
    <glyph glyph-name="afii62776" unicode="&#x62d;" horiz-adv-x="1270" arabic-form="final" 
d="M1310 10q-59 1 -108.5 6.5t-88.5 20t-67.5 39t-46.5 62.5l-29 105l-389 -217q-260 -147 -260 -367q0 -158 131 -281q131 -122 277 -122h551l14 -175h-515q-296 0 -483 214q-136 167 -136 370v39l4 42q27 262 271 389l601 329q-51 93 -141 111q-79 15 -504 15l-25 166h451
q187 0 288.5 -96t103.5 -282l-177 -101q9 -63 86 -81q66 -15 192 -15v-171z" />
    <glyph glyph-name="afii62774" unicode="&#x62d;" horiz-adv-x="1099" arabic-form="initial" 
d="M615 131q-141 -80 -266 -101q-59 -10 -154 -15t-229 -5v171h142q112 0 148 10q121 14 228 62q32 14 80 39.5t111 64.5l190 104q-30 86 -143 114q-87 15 -489 15l-25 166h462q193 0 286 -93t95 -285z" />
    <glyph glyph-name="afii62775" unicode="&#x62d;" horiz-adv-x="1099" arabic-form="medial" 
d="M1120 10q-144 1 -211 35q-40 19 -73 86l-25 113q-89 -59 -187.5 -108.5t-208.5 -90.5q-134 -35 -449 -35v171h142q112 0 148 10q121 14 228 62q32 14 80 39.5t111 64.5l190 104q-30 86 -143 114q-87 15 -489 15l-25 166h462q186 0 282.5 -98t98.5 -282l-178 -98v-6
q0 -90 247 -91v-171z" />
    <glyph glyph-name="afii62779" unicode="&#x62e;" horiz-adv-x="1270" arabic-form="final" 
d="M1310 10q-59 1 -108.5 6.5t-88.5 20t-67.5 39t-46.5 62.5l-29 105l-389 -217q-260 -147 -260 -367q0 -158 131 -281q131 -122 277 -122h551l14 -175h-515q-296 0 -483 214q-136 167 -136 370v39l4 42q27 262 271 389l601 329q-51 93 -141 111q-79 15 -504 15l-25 166h451
q187 0 288.5 -96t103.5 -282l-177 -101q9 -63 86 -81q66 -15 192 -15v-171zM696 1188q20 0 41.5 -9t38.5 -23.5t28 -33.5t11 -39q0 -24 -7.5 -47.5t-21.5 -42t-33.5 -30t-42.5 -11.5q-64 0 -98.5 33.5t-34.5 97.5q0 19 11.5 38t28.5 34t38.5 24t40.5 9z" />
    <glyph glyph-name="afii62777" unicode="&#x62e;" horiz-adv-x="1099" arabic-form="initial" 
d="M615 131q-141 -80 -266 -101q-59 -10 -154 -15t-229 -5v171h142q112 0 148 10q121 14 228 62q32 14 80 39.5t111 64.5l190 104q-30 86 -143 114q-87 15 -489 15l-25 166h462q193 0 286 -93t95 -285zM512 1187q20 0 41.5 -9t38.5 -23.5t28 -33.5t11 -39q0 -24 -7.5 -47.5
t-21.5 -42t-33.5 -30t-42.5 -11.5q-64 0 -98.5 33.5t-34.5 97.5q0 19 11.5 38t28.5 34t38.5 24t40.5 9z" />
    <glyph glyph-name="afii62778" unicode="&#x62e;" horiz-adv-x="1099" arabic-form="medial" 
d="M1120 10q-144 1 -211 35q-40 19 -73 86l-25 113q-89 -59 -187.5 -108.5t-208.5 -90.5q-134 -35 -449 -35v171h142q112 0 148 10q121 14 228 62q32 14 80 39.5t111 64.5l190 104q-30 86 -143 114q-87 15 -489 15l-25 166h462q186 0 282.5 -98t98.5 -282l-178 -98v-6
q0 -90 247 -91v-171zM529 1165q20 0 41.5 -9t38.5 -23.5t28 -33.5t11 -39q0 -24 -7.5 -47.5t-21.5 -42t-33.5 -30t-42.5 -11.5q-64 0 -98.5 33.5t-34.5 97.5q0 19 11.5 38t28.5 34t38.5 24t40.5 9z" />
    <glyph glyph-name="afii62780" unicode="&#x62f;" horiz-adv-x="1317" arabic-form="final" 
d="M1248 10q-102 0 -243 141q-14 -24 -35 -50t-50 -53q-61 -38 -172 -38h-581l-24 171h594q120 0 120 81q0 48 -37 82l-422 451l113 116l571 -603q45 -47 75 -74.5t47 -35.5q31 -16 125 -17v-171h-81z" />
    <glyph glyph-name="afii62781" unicode="&#x630;" horiz-adv-x="1317" arabic-form="final" 
d="M1248 10q-102 0 -243 141q-14 -24 -35 -50t-50 -53q-61 -38 -172 -38h-581l-24 171h594q120 0 120 81q0 48 -37 82l-422 451l113 116l571 -603q45 -47 75 -74.5t47 -35.5q31 -16 125 -17v-171h-81zM437 1296q20 0 41.5 -9t38.5 -23.5t28 -33.5t11 -39q0 -24 -7.5 -47.5
t-21.5 -42t-33.5 -30t-42.5 -11.5q-64 0 -98.5 33.5t-34.5 97.5q0 19 11.5 38t28.5 34t38.5 24t40.5 9z" />
    <glyph glyph-name="afii62782" unicode="&#x631;" horiz-adv-x="976" arabic-form="final" 
d="M998 10q-128 3 -186 88l-19 28v-35q0 -259 -147 -430q-136 -136 -328 -136h-239l-31 168h252q121 0 222 83q100 85 100 210v607h168v-266q0 -143 208 -146v-171z" />
    <glyph glyph-name="afii62783" unicode="&#x632;" horiz-adv-x="976" arabic-form="final" 
d="M998 10q-128 3 -186 88l-19 28v-35q0 -259 -147 -430q-136 -136 -328 -136h-239l-31 168h252q121 0 222 83q100 85 100 210v607h168v-266q0 -143 208 -146v-171zM655 1040q20 0 41.5 -9t38.5 -23.5t28 -33.5t11 -39q0 -24 -7.5 -47.5t-21.5 -42t-33.5 -30t-42.5 -11.5
q-64 0 -98.5 33.5t-34.5 97.5q0 19 11.5 38t28.5 34t38.5 24t40.5 9z" />
    <glyph glyph-name="afii62786" unicode="&#x633;" horiz-adv-x="2448" arabic-form="final" 
d="M1772 312q0 -67 45.5 -99t115.5 -32q155 0 155 136v276h168v-280q0 -72 75 -116h1l63 -12l80 -4v-171l-68 4q-42 2 -53 7l-1 1h-2q-105 13 -173 100q-93 -116 -252 -116q-139 0 -249 110q-109 -109 -240 -109q-72 0 -136 70l-18 20v-28q0 -242 -134 -392
q-134 -152 -328 -152h-302q-184 0 -322 144q-138 145 -138 343v388h170v-397q0 -65 25 -121.5t68.5 -98.5t101 -66t121.5 -24h250q68 0 125.5 23t100.5 64.5t67 98t24 124.5v590h171v-292q0 -25 13.5 -47t35 -38.5t48 -25.5t53.5 -9q163 0 163 119v293h176v-281z" />
    <glyph glyph-name="afii62784" unicode="&#x633;" horiz-adv-x="1549" arabic-form="initial" 
d="M1470 307q0 -70 -24 -124.5t-67 -92t-103 -57.5t-133 -20q-119 0 -246 109q-127 -107 -247 -107q-106 0 -234 105l-9 6q-19 -24 -40 -45.5t-46.5 -37t-58.5 -24.5t-77 -9h-218v171h217q82 0 116 43t34 128v241h163v-239q0 -37 10.5 -69.5t30.5 -56.5t49 -38t66 -14
q83 0 124 45.5t41 129.5v242h165v-248q0 -76 43.5 -122.5t117.5 -46.5q79 0 119.5 43t40.5 123v251h166v-286z" />
    <glyph glyph-name="afii62785" unicode="&#x633;" horiz-adv-x="1667" arabic-form="medial" 
d="M1372 121q-49 -56 -107 -86.5t-133 -30.5q-125 0 -244 119q-119 -119 -258 -119q-133 0 -219 119q-16 -21 -34.5 -42t-41.5 -37.5t-52 -26.5t-67 -10h-1l-257 3v171h169q54 0 90.5 7.5t59.5 27t33 54t10 88.5v235h167v-233q0 -33 11 -66t30 -59t45.5 -42.5t57.5 -16.5
q171 0 171 175v242h169v-239q0 -33 13 -65t35 -57t51.5 -40.5t61.5 -15.5q81 0 119.5 46t38.5 129v242h171v-286q0 -97 139 -122h1l79 -4v-171l-68 4q-149 6 -240 107z" />
    <glyph glyph-name="afii62789" unicode="&#x634;" horiz-adv-x="2448" arabic-form="final" 
d="M1772 312q0 -67 45.5 -99t115.5 -32q155 0 155 136v276h168v-280q0 -72 75 -116h1l63 -12l80 -4v-171l-68 4q-42 2 -53 7l-1 1h-2q-105 13 -173 100q-93 -116 -252 -116q-139 0 -249 110q-109 -109 -240 -109q-72 0 -136 70l-18 20v-28q0 -242 -134 -392
q-134 -152 -328 -152h-302q-184 0 -322 144q-138 145 -138 343v388h170v-397q0 -65 25 -121.5t68.5 -98.5t101 -66t121.5 -24h250q68 0 125.5 23t100.5 64.5t67 98t24 124.5v590h171v-292q0 -25 13.5 -47t35 -38.5t48 -25.5t53.5 -9q163 0 163 119v293h176v-281zM1852 1038
q23 0 45 -10t38.5 -26.5t26.5 -38t10 -44.5q0 -24 -10 -45.5t-26.5 -37.5t-38 -25.5t-45.5 -9.5t-45.5 9.5t-37.5 25.5t-25.5 37.5t-9.5 45.5t9.5 45.5t26 38t37.5 26t45 9.5zM1661 919q0 -24 -9.5 -45t-26 -37.5t-38 -26t-45.5 -9.5t-45.5 9.5t-37 25.5t-25 37.5t-9.5 45.5
q0 23 9.5 44.5t25.5 38t37.5 26.5t44.5 10t44.5 -10t38 -26.5t26.5 -38t10 -44.5zM1809 1211q0 -23 -10 -44.5t-26.5 -38t-38 -26.5t-44.5 -10q-24 0 -45 9.5t-37 26t-25.5 38t-9.5 45.5q0 23 9.5 44.5t25.5 38t37.5 26.5t44.5 10t44.5 -10t38 -26.5t26.5 -38t10 -44.5z" />
    <glyph glyph-name="afii62787" unicode="&#x634;" horiz-adv-x="1549" arabic-form="initial" 
d="M1470 307q0 -70 -24 -124.5t-67 -92t-103 -57.5t-133 -20q-119 0 -246 109q-127 -107 -247 -107q-106 0 -234 105l-9 6q-19 -24 -40 -45.5t-46.5 -37t-58.5 -24.5t-77 -9h-218v171h217q82 0 116 43t34 128v241h163v-239q0 -37 10.5 -69.5t30.5 -56.5t49 -38t66 -14
q83 0 124 45.5t41 129.5v242h165v-248q0 -76 43.5 -122.5t117.5 -46.5q79 0 119.5 43t40.5 123v251h166v-286zM1110 1048q23 0 45 -10t38.5 -26.5t26.5 -38t10 -44.5q0 -24 -10 -45.5t-26.5 -37.5t-38 -25.5t-45.5 -9.5t-45.5 9.5t-37.5 25.5t-25.5 37.5t-9.5 45.5t9.5 45.5
t26 38t37.5 26t45 9.5zM919 929q0 -24 -9.5 -45t-26 -37.5t-38 -26t-45.5 -9.5t-45.5 9.5t-37 25.5t-25 37.5t-9.5 45.5q0 23 9.5 44.5t25.5 38t37.5 26.5t44.5 10t44.5 -10t38 -26.5t26.5 -38t10 -44.5zM1067 1221q0 -23 -10 -44.5t-26.5 -38t-38 -26.5t-44.5 -10
q-24 0 -45 9.5t-37 26t-25.5 38t-9.5 45.5q0 23 9.5 44.5t25.5 38t37.5 26.5t44.5 10t44.5 -10t38 -26.5t26.5 -38t10 -44.5z" />
    <glyph glyph-name="afii62788" unicode="&#x634;" horiz-adv-x="1667" arabic-form="medial" 
d="M1372 121q-49 -56 -107 -86.5t-133 -30.5q-125 0 -244 119q-119 -119 -258 -119q-133 0 -219 119q-16 -21 -34.5 -42t-41.5 -37.5t-52 -26.5t-67 -10h-1l-257 3v171h169q54 0 90.5 7.5t59.5 27t33 54t10 88.5v235h167v-233q0 -33 11 -66t30 -59t45.5 -42.5t57.5 -16.5
q171 0 171 175v242h169v-239q0 -33 13 -65t35 -57t51.5 -40.5t61.5 -15.5q81 0 119.5 46t38.5 129v242h171v-286q0 -97 139 -122h1l79 -4v-171l-68 4q-149 6 -240 107zM1046 1026q23 0 45 -10t38.5 -26.5t26.5 -38t10 -44.5q0 -24 -10 -45.5t-26.5 -37.5t-38 -25.5
t-45.5 -9.5t-45.5 9.5t-37.5 25.5t-25.5 37.5t-9.5 45.5t9.5 45.5t26 38t37.5 26t45 9.5zM855 907q0 -24 -9.5 -45t-26 -37.5t-38 -26t-45.5 -9.5t-45.5 9.5t-37 25.5t-25 37.5t-9.5 45.5q0 23 9.5 44.5t25.5 38t37.5 26.5t44.5 10t44.5 -10t38 -26.5t26.5 -38t10 -44.5z
M1003 1199q0 -23 -10 -44.5t-26.5 -38t-38 -26.5t-44.5 -10q-24 0 -45 9.5t-37 26t-25.5 38t-9.5 45.5q0 23 9.5 44.5t25.5 38t37.5 26.5t44.5 10t44.5 -10t38 -26.5t26.5 -38t10 -44.5z" />
    <glyph glyph-name="afii62792" unicode="&#x635;" horiz-adv-x="2401" arabic-form="final" 
d="M2048 584q-98 0 -202 -125q-77 -83 -182 -278h392q115 0 115 196q0 127 -61 188q-15 10 -60 19h-2zM239 -14q0 -57 26 -109.5t68.5 -93.5t97 -65.5t111.5 -24.5h271q114 0 213 101q98 100 98 192v607h171v-275q0 -137 194 -137h7l2 6q225 571 516 571q51 0 96 -15.5
t82 -41t65.5 -58.5t46.5 -68q44 -91 44 -184q0 -94 -35 -210h113v-171h-862q-209 0 -245 96l-20 53v-57q0 -130 -31 -232.5t-87 -178.5q-54 -74 -143 -120t-213 -46h-297q-196 0 -324 149q-26 32 -49.5 71t-41 85t-27.5 97.5t-10 107.5v365h163v-414z" />
    <glyph glyph-name="afii62790" unicode="&#x635;" horiz-adv-x="1580" arabic-form="initial" 
d="M1237 584q-85 0 -202 -125q-89 -97 -180 -278h390q120 0 120 196q0 123 -65 188q-14 10 -61 19h-2zM170 181q74 0 109.5 40t35.5 114v258h168v-238q0 -174 198 -174h8l2 6q52 137 111.5 242.5t128.5 180.5q134 146 282 146q58 0 140 -45q181 -101 181 -339
q0 -36 -7.5 -83t-21 -91.5t-30.5 -81t-37 -51.5q-67 -55 -228 -55h-490q-107 0 -170 43.5t-98 119.5l-11 -13q-115 -150 -254 -150h-220v171h203z" />
    <glyph glyph-name="afii62791" unicode="&#x635;" horiz-adv-x="1667" arabic-form="medial" 
d="M1237 584q-85 0 -202 -125q-89 -97 -180 -278h390q120 0 120 196q0 123 -65 188q-14 10 -61 19h-2zM170 181q74 0 109.5 40t35.5 114v258h168v-238q0 -174 198 -174h8l2 6q52 137 111.5 242.5t128.5 180.5q134 146 282 146q69 0 145 -45q176 -104 176 -339
q0 -36 -7 -83.5t-22 -107.5h175v-171h-960q-107 0 -170 43.5t-98 119.5l-11 -13q-115 -150 -254 -150h-220v171h203z" />
    <glyph glyph-name="afii62795" unicode="&#x636;" horiz-adv-x="2401" arabic-form="final" 
d="M2048 584q-98 0 -202 -125q-77 -83 -182 -278h392q115 0 115 196q0 127 -61 188q-15 10 -60 19h-2zM239 -14q0 -57 26 -109.5t68.5 -93.5t97 -65.5t111.5 -24.5h271q114 0 213 101q98 100 98 192v607h171v-275q0 -137 194 -137h7l2 6q225 571 516 571q51 0 96 -15.5
t82 -41t65.5 -58.5t46.5 -68q44 -91 44 -184q0 -94 -35 -210h113v-171h-862q-209 0 -245 96l-20 53v-57q0 -130 -31 -232.5t-87 -178.5q-54 -74 -143 -120t-213 -46h-297q-196 0 -324 149q-26 32 -49.5 71t-41 85t-27.5 97.5t-10 107.5v365h163v-414zM1498 1124
q20 0 41.5 -9t38.5 -23.5t28 -33.5t11 -39q0 -24 -7.5 -47.5t-21.5 -42t-33.5 -30t-42.5 -11.5q-64 0 -98.5 33.5t-34.5 97.5q0 19 11.5 38t28.5 34t38.5 24t40.5 9z" />
    <glyph glyph-name="afii62793" unicode="&#x636;" horiz-adv-x="1580" arabic-form="initial" 
d="M1237 584q-85 0 -202 -125q-89 -97 -180 -278h390q120 0 120 196q0 123 -65 188q-14 10 -61 19h-2zM170 181q74 0 109.5 40t35.5 114v258h168v-238q0 -174 198 -174h8l2 6q52 137 111.5 242.5t128.5 180.5q134 146 282 146q58 0 140 -45q181 -101 181 -339
q0 -36 -7.5 -83t-21 -91.5t-30.5 -81t-37 -51.5q-67 -55 -228 -55h-490q-107 0 -170 43.5t-98 119.5l-11 -13q-115 -150 -254 -150h-220v171h203zM716 1165q20 0 41.5 -9t38.5 -23.5t28 -33.5t11 -39q0 -24 -7.5 -47.5t-21.5 -42t-33.5 -30t-42.5 -11.5q-64 0 -98.5 33.5
t-34.5 97.5q0 19 11.5 38t28.5 34t38.5 24t40.5 9z" />
    <glyph glyph-name="afii62794" unicode="&#x636;" horiz-adv-x="1667" arabic-form="medial" 
d="M1237 584q-85 0 -202 -125q-89 -97 -180 -278h390q120 0 120 196q0 123 -65 188q-14 10 -61 19h-2zM170 181q74 0 109.5 40t35.5 114v258h168v-238q0 -174 198 -174h8l2 6q52 137 111.5 242.5t128.5 180.5q134 146 282 146q69 0 145 -45q176 -104 176 -339
q0 -36 -7 -83.5t-22 -107.5h175v-171h-960q-107 0 -170 43.5t-98 119.5l-11 -13q-115 -150 -254 -150h-220v171h203zM755 1166q20 0 41.5 -9t38.5 -23.5t28 -33.5t11 -39q0 -24 -7.5 -47.5t-21.5 -42t-33.5 -30t-42.5 -11.5q-64 0 -98.5 33.5t-34.5 97.5q0 19 11.5 38
t28.5 34t38.5 24t40.5 9z" />
    <glyph glyph-name="afii62798" unicode="&#x637;" horiz-adv-x="1113" arabic-form="final" 
d="M747 584q-82 0 -198 -125q-54 -52 -98 -121t-82 -157h383q45 0 90 63l1 1q31 59 31 139q0 127 -64 181q-14 10 -61 19h-2zM1037 284q0 -38 -25 -103h109v-171h-1031l-34 171h159v1040h171v-707l19 25q171 217 321 217q50 0 140 -45q176 -102 176 -353v-26z" />
    <glyph glyph-name="afii62796" unicode="&#x637;" horiz-adv-x="1048" arabic-form="initial" 
d="M665 584q-84 0 -195 -116q-108 -112 -182 -273l-8 -14h393q119 0 119 194q0 136 -68 190q-5 5 -19 9.5t-38 9.5h-2zM786 711q40 -22 73.5 -60.5t57.5 -88t37.5 -108t13.5 -120.5q0 -128 -73 -220q-78 -104 -225 -104h-695v171h164v1040h169v-704l19 24q169 215 318 215
q59 0 141 -45z" />
    <glyph glyph-name="afii62797" unicode="&#x637;" horiz-adv-x="1009" arabic-form="medial" 
d="M628 584q-86 0 -202 -125q-51 -54 -94.5 -120t-79.5 -144l-7 -14h388q46 0 91 63l2 1v1q26 51 26 138q0 120 -61 181q-14 10 -61 19h-2zM920 363q0 -105 -33 -182h134v-171h-1063v171h139v1040h168v-707l19 25q171 217 327 217q51 0 133 -45q176 -102 176 -348z" />
    <glyph glyph-name="afii62801" unicode="&#x638;" horiz-adv-x="1113" arabic-form="final" 
d="M747 584q-82 0 -198 -125q-54 -52 -98 -121t-82 -157h383q45 0 90 63l1 1q31 59 31 139q0 127 -64 181q-14 10 -61 19h-2zM1037 284q0 -38 -25 -103h109v-171h-1031l-34 171h159v1040h171v-707l19 25q171 217 321 217q50 0 140 -45q176 -102 176 -353v-26zM798 1198
q20 0 41.5 -9t38.5 -23.5t28 -33.5t11 -39q0 -24 -7.5 -47.5t-21.5 -42t-33.5 -30t-42.5 -11.5q-64 0 -98.5 33.5t-34.5 97.5q0 19 11.5 38t28.5 34t38.5 24t40.5 9z" />
    <glyph glyph-name="afii62799" unicode="&#x638;" horiz-adv-x="1048" arabic-form="initial" 
d="M663 1170q20 0 41.5 -9t38.5 -23.5t28 -33.5t11 -39q0 -24 -7.5 -47.5t-21.5 -42t-33.5 -30t-42.5 -11.5q-64 0 -98.5 33.5t-34.5 97.5q0 19 11.5 38t28.5 34t38.5 24t40.5 9zM665 584q-84 0 -195 -116q-108 -112 -182 -273l-8 -14h393q119 0 119 194q0 136 -68 190
q-5 5 -19 9.5t-38 9.5h-2zM786 711q40 -22 73.5 -60.5t57.5 -88t37.5 -108t13.5 -120.5q0 -128 -73 -220q-78 -104 -225 -104h-695v171h164v1040h169v-704l19 24q169 215 318 215q59 0 141 -45z" />
    <glyph glyph-name="afii62800" unicode="&#x638;" horiz-adv-x="1009" arabic-form="medial" 
d="M627 1160q20 0 41.5 -9t38.5 -23.5t28 -33.5t11 -39q0 -24 -7.5 -47.5t-21.5 -42t-33.5 -30t-42.5 -11.5q-64 0 -98.5 33.5t-34.5 97.5q0 19 11.5 38t28.5 34t38.5 24t40.5 9zM628 584q-86 0 -202 -125q-51 -54 -94.5 -120t-79.5 -144l-7 -14h388q46 0 91 63l2 1v1
q26 51 26 138q0 120 -61 181q-14 10 -61 19h-2zM920 363q0 -105 -33 -182h134v-171h-1063v171h139v1040h168v-707l19 25q171 217 327 217q51 0 133 -45q176 -102 176 -348z" />
    <glyph glyph-name="afii62804" unicode="&#x639;" horiz-adv-x="1272" arabic-form="final" 
d="M1015 523q0 51 -104 69h-332l232 -247q49 28 89.5 51.5t66.5 45.5q48 41 48 81zM929 226q101 -45 376 -45v-171q-188 0 -275 17q-159 28 -240 125l-8 -3q-469 -195 -469 -495q0 -143 133 -282q123 -116 266 -116h551l16 -175h-517q-254 0 -431 185q-180 166 -180 405
q0 173 116 327t396 274l-265 253l65 111l59 120h401q236 0 263 -201q0 -81 -13 -94v-1q-22 -106 -226 -224z" />
    <glyph glyph-name="afii62802" unicode="&#x639;" horiz-adv-x="964" arabic-form="initial" 
d="M246 181q-65 154 -65 247q0 146 114 251q41 36 109 57l63 14l86 6q72 0 151 -37h1q40 -14 68 -42q34 -19 68 -54l-84 -133q-145 111 -250 111q-111 0 -150 -109h-1l-14 -51v-36q0 -53 26 -113q47 -111 139 -111h376l31 -171h-947v171h279z" />
    <glyph glyph-name="afii62803" unicode="&#x639;" horiz-adv-x="886" arabic-form="medial" 
d="M634 519q0 22 -8 34.5t-21 19.5t-30.5 11t-35.5 8h-333l232 -243q49 25 85.5 47t61.5 42q49 40 49 81zM581 234q134 -51 329 -53v-171q-177 0 -257 19q-75 15 -204 124q-118 -98 -244 -131q-72 -12 -239 -12v171q263 2 341 80l-268 264l121 231h403q235 0 257 -201
q0 -37 -1 -59.5t-4 -32.5q-11 -36 -36.5 -69t-58 -62t-69 -53.5t-70.5 -44.5z" />
    <glyph glyph-name="afii62807" unicode="&#x63a;" horiz-adv-x="1272" arabic-form="final" 
d="M814 1169q20 0 41.5 -9t38.5 -23.5t28 -33.5t11 -39q0 -24 -7.5 -47.5t-21.5 -42t-33.5 -30t-42.5 -11.5q-64 0 -98.5 33.5t-34.5 97.5q0 19 11.5 38t28.5 34t38.5 24t40.5 9zM1015 523q0 51 -104 69h-332l232 -247q49 28 89.5 51.5t66.5 45.5q48 41 48 81zM929 226
q101 -45 376 -45v-171q-188 0 -275 17q-159 28 -240 125l-8 -3q-469 -195 -469 -495q0 -143 133 -282q123 -116 266 -116h551l16 -175h-517q-254 0 -431 185q-180 166 -180 405q0 173 116 327t396 274l-265 253l65 111l59 120h401q236 0 263 -201q0 -81 -13 -94v-1
q-22 -106 -226 -224z" />
    <glyph glyph-name="afii62805" unicode="&#x63a;" horiz-adv-x="964" arabic-form="initial" 
d="M246 181q-65 154 -65 247q0 146 114 251q41 36 109 57l63 14l86 6q72 0 151 -37h1q40 -14 68 -42q34 -19 68 -54l-84 -133q-145 111 -250 111q-111 0 -150 -109h-1l-14 -51v-36q0 -53 26 -113q47 -111 139 -111h376l31 -171h-947v171h279zM572 1163q20 0 41.5 -9
t38.5 -23.5t28 -33.5t11 -39q0 -24 -7.5 -47.5t-21.5 -42t-33.5 -30t-42.5 -11.5q-64 0 -98.5 33.5t-34.5 97.5q0 19 11.5 38t28.5 34t38.5 24t40.5 9z" />
    <glyph glyph-name="afii62806" unicode="&#x63a;" horiz-adv-x="886" arabic-form="medial" 
d="M634 519q0 22 -8 34.5t-21 19.5t-30.5 11t-35.5 8h-333l232 -243q49 25 85.5 47t61.5 42q49 40 49 81zM581 234q134 -51 329 -53v-171q-177 0 -257 19q-75 15 -204 124q-118 -98 -244 -131q-72 -12 -239 -12v171q263 2 341 80l-268 264l121 231h403q235 0 257 -201
q0 -37 -1 -59.5t-4 -32.5q-11 -36 -36.5 -69t-58 -62t-69 -53.5t-70.5 -44.5zM454 1191q20 0 41.5 -9t38.5 -23.5t28 -33.5t11 -39q0 -24 -7.5 -47.5t-21.5 -42t-33.5 -30t-42.5 -11.5q-64 0 -98.5 33.5t-34.5 97.5q0 19 11.5 38t28.5 34t38.5 24t40.5 9z" />
    <glyph glyph-name="afii62810" unicode="&#x641;" horiz-adv-x="1725" arabic-form="final" 
d="M1473 411q0 31 -14 63t-37 58.5t-52 43t-60 16.5q-30 0 -60.5 -13t-55 -34.5t-40.5 -49.5t-16 -58q0 -116 204 -214l5 -3l4 4q122 75 122 187zM261 341q0 -77 39 -118.5t115 -41.5h686l-14 16q-103 121 -103 246q0 126 88 220q87 93 233 93q143 0 236 -103
q83 -100 83 -226q0 -132 -75 -246h192v-171q-316 0 -407 47q-10 -13 -27.5 -19.5t-40 -10t-49.5 -5t-55 -3.5q-41 -3 -88 -4t-101 -1l-638 -4q-104 0 -182 104q-61 94 -61 199v280h169v-252zM1300 1159q20 0 41.5 -9t38.5 -23.5t28 -33.5t11 -39q0 -24 -7.5 -47.5t-21.5 -42
t-33.5 -30t-42.5 -11.5q-64 0 -98.5 33.5t-34.5 97.5q0 19 11.5 38t28.5 34t38.5 24t40.5 9z" />
    <glyph glyph-name="afii62808" unicode="&#x641;" horiz-adv-x="894" arabic-form="initial" 
d="M649 514q0 44 -12.5 84t-36 71t-57.5 49t-78 18q-27 0 -53 -7t-46.5 -20.5t-32.5 -33.5t-12 -47q0 -95 59 -112q20 -12 130 -12h139v10zM831 320q0 -161 -109 -241q-88 -69 -180 -69h-566v171h569q119 0 119 154v10h-11q-262 0 -337 18q-152 64 -152 252q0 141 93 220
q96 81 225 81t228 -93q118 -103 118 -281zM487 1331q20 0 41.5 -9t38.5 -23.5t28 -33.5t11 -39q0 -24 -7.5 -47.5t-21.5 -42t-33.5 -30t-42.5 -11.5q-64 0 -98.5 33.5t-34.5 97.5q0 19 11.5 38t28.5 34t38.5 24t40.5 9z" />
    <glyph glyph-name="afii62809" unicode="&#x641;" horiz-adv-x="912" arabic-form="medial" 
d="M445 592q-28 0 -57.5 -14t-53 -36.5t-38.5 -50.5t-15 -57q0 -121 200 -211l5 -4q63 51 95 97t32 95q0 31 -14.5 63t-38.5 58.5t-54 43t-61 16.5zM121 448q0 69 25 125.5t69.5 97t104 63t128.5 22.5q152 0 237 -102q79 -98 79 -228q0 -131 -75 -245h265v-169l-51 4h-51
l-136 3q-40 0 -77.5 3.5t-72.5 9.5l-90 31q-70 -53 -535 -53v171h297l-14 16q-103 121 -103 251zM467 1190q20 0 41.5 -9t38.5 -23.5t28 -33.5t11 -39q0 -24 -7.5 -47.5t-21.5 -42t-33.5 -30t-42.5 -11.5q-64 0 -98.5 33.5t-34.5 97.5q0 19 11.5 38t28.5 34t38.5 24t40.5 9z
" />
    <glyph glyph-name="afii62813" unicode="&#x642;" horiz-adv-x="1439" arabic-form="final" 
d="M1142 191q0 42 -16.5 82.5t-45 72t-66.5 51t-80 19.5q-29 0 -56 -6t-48 -19t-33.5 -33t-12.5 -48q0 -80 72 -115l1 -1q43 -13 275 -13h10v10zM622 297q0 68 25.5 122.5t70 93t104 59.5t127.5 21q84 0 151.5 -30.5t114.5 -84.5t72 -127.5t25 -159.5v-10h154v-171h-159v-10
q0 -106 -38 -182v-1q-32 -87 -114 -158v-1q-136 -133 -325 -133h-297q-171 0 -308 149t-137 338v270h168v-296q0 -111 106 -198q105 -87 209 -87h253q115 0 206 86q107 83 107 213v10h-10q-280 0 -346 26q-159 54 -159 261zM803 1030q23 0 44.5 -10t38 -26.5t26.5 -38
t10 -44.5q0 -20 -9 -41t-24 -38t-34 -27.5t-39 -10.5q-63 0 -97 34t-34 97q0 19 11 38t28.5 34t38.5 24t40 9zM1096 1030q23 0 45 -10t38.5 -26.5t26.5 -38t10 -44.5q0 -20 -9 -41t-24 -38t-34 -27.5t-39 -10.5q-63 0 -97.5 33.5t-34.5 97.5q0 20 11 39t28 33.5t38 23.5
t41 9z" />
    <glyph glyph-name="afii62811" unicode="&#x642;" horiz-adv-x="894" arabic-form="initial" 
d="M649 514q0 44 -12.5 84t-36 71t-57.5 49t-78 18q-27 0 -53 -7t-46.5 -20.5t-32.5 -33.5t-12 -47q0 -95 59 -112q20 -12 130 -12h139v10zM831 320q0 -161 -109 -241q-88 -69 -180 -69h-566v171h569q119 0 119 154v10h-11q-262 0 -337 18q-152 64 -152 252q0 141 93 220
q96 81 225 81t228 -93q118 -103 118 -281zM336 1324q23 0 44.5 -10t38 -26.5t26.5 -38t10 -44.5q0 -20 -9 -41t-24 -38t-34 -27.5t-39 -10.5q-63 0 -97 34t-34 97q0 19 11 38t28.5 34t38.5 24t40 9zM629 1324q23 0 45 -10t38.5 -26.5t26.5 -38t10 -44.5q0 -20 -9 -41
t-24 -38t-34 -27.5t-39 -10.5q-63 0 -97.5 33.5t-34.5 97.5q0 20 11 39t28 33.5t38 23.5t41 9z" />
    <glyph glyph-name="afii62812" unicode="&#x642;" horiz-adv-x="912" arabic-form="medial" 
d="M445 592q-28 0 -57.5 -14t-53 -36.5t-38.5 -50.5t-15 -57q0 -121 200 -211l5 -4q63 51 95 97t32 95q0 31 -14.5 63t-38.5 58.5t-54 43t-61 16.5zM121 448q0 69 25 125.5t69.5 97t104 63t128.5 22.5q152 0 237 -102q79 -98 79 -228q0 -131 -75 -245h265v-169l-51 4h-51
l-136 3q-40 0 -77.5 3.5t-72.5 9.5l-90 31q-70 -53 -535 -53v171h297l-14 16q-103 121 -103 251zM301 1171q23 0 44.5 -10t38 -26.5t26.5 -38t10 -44.5q0 -20 -9 -41t-24 -38t-34 -27.5t-39 -10.5q-63 0 -97 34t-34 97q0 19 11 38t28.5 34t38.5 24t40 9zM594 1171
q23 0 45 -10t38.5 -26.5t26.5 -38t10 -44.5q0 -20 -9 -41t-24 -38t-34 -27.5t-39 -10.5q-63 0 -97.5 33.5t-34.5 97.5q0 20 11 39t28 33.5t38 23.5t41 9z" />
    <glyph glyph-name="afii62816" unicode="&#x643;" horiz-adv-x="1738" arabic-form="final" 
d="M710 901q0 -29 15.5 -47t44.5 -18q50 0 164 60l47 -93l-349 -175l-37 88l85 46q-72 65 -72 136q0 36 14.5 68t39 56t56.5 38t68 15q23 -5 50.5 -13t59.5 -22l-44 -94q-42 30 -69 30q-25 0 -44 -16l13 -16l-17 13q-25 -35 -25 -56zM265 341q0 -45 7 -75.5t24.5 -49.5
t47 -27t74.5 -8l726 -5h62q61 0 94 21.5t45 70.5q15 36 15 109v844h171v-880q0 -108 66 -144h1l2 -1q60 -15 176 -15v-171h-51q-60 0 -98.5 2.5t-67 10.5t-53.5 24.5t-58 43.5q-71 -61 -126 -70q-28 -5 -269.5 -8t-697.5 -3q-58 0 -106 25.5t-83 67.5t-54.5 96.5
t-19.5 113.5v280h173v-252z" />
    <glyph glyph-name="afii57410" unicode="&#x643;" horiz-adv-x="898" arabic-form="initial" 
d="M758 407q53 -65 53 -149q0 -86 -72 -169q-79 -79 -225 -79h-548v171h548q120 0 120 81q0 37 -38 89l-505 528l-35 190l750 270l20 -164l-569 -211z" />
    <glyph glyph-name="afii62815" unicode="&#x643;" horiz-adv-x="1103" arabic-form="medial" 
d="M784 175q-18 -43 -35.5 -74.5t-43 -51.5t-63.5 -29.5t-97 -9.5h-564v171h543q110 0 110 81q0 42 -46 95l-479 521l-28 205l739 263l27 -171l-573 -211l544 -600q59 -66 101.5 -105.5t68.5 -56.5l1 -1l52 -16l72 -3v-172q-221 3 -318 150z" />
    <glyph glyph-name="afii62819" unicode="&#x644;" horiz-adv-x="1501" arabic-form="final" 
d="M825 -307q63 0 120.5 22.5t101 61.5t69.5 92.5t26 116.5v1235h170v-894q0 -143 222 -146v-171q-141 3 -199 88l-19 28v-35q0 -261 -148 -430q-133 -136 -329 -136h-294q-179 0 -315 148q-138 147 -138 339v388h169v-414q0 -110 91 -201q92 -92 230 -92h243z" />
    <glyph glyph-name="afii62817" unicode="&#x644;" horiz-adv-x="463" arabic-form="initial" 
d="M404 296q0 -66 -21.5 -119t-60.5 -90t-93.5 -57t-120.5 -20h-133v171h122q82 0 118 52l1 1v1q21 44 21 142v844h167v-925z" />
    <glyph glyph-name="afii62818" unicode="&#x644;" horiz-adv-x="636" arabic-form="medial" 
d="M102 180q49 0 78.5 11.5t45.5 35.5t21 61.5t5 88.5v844h171v-880q0 -109 69 -135q32 -11 75.5 -17.5t100.5 -7.5v-171h-48q-116 0 -164 14q-49 14 -112 67q-71 -61 -126 -70q-58 -11 -243 -11v171z" />
    <glyph glyph-name="afii62822" unicode="&#x645;" horiz-adv-x="1345" arabic-form="final" 
d="M657 310q0 -32 13 -58t35.5 -45t51.5 -29t61 -10q36 0 65.5 12.5t50.5 34t33 51.5t12 66q0 175 -37 209q-49 49 -274 49h-11v-280zM480 590q-41 0 -81.5 -15.5t-72 -42.5t-51 -62.5t-19.5 -76.5v-868h-164v841q0 186 99 297q107 93 264 93h391q296 0 296 -438
q0 -134 214 -137v-171q-98 1 -163 23q-54 28 -120 129l-7 -18q-58 -147 -235 -147q-137 0 -230 93q-111 93 -111 256v244h-10z" />
    <glyph glyph-name="afii62820" unicode="&#x645;" horiz-adv-x="891" arabic-form="initial" 
d="M500 151q47 0 81 16t55.5 45.5t31.5 70t10 89.5t-10 89.5t-31.5 69t-55.5 44t-81 15.5q-94 0 -136.5 -59.5t-42.5 -158.5q0 -49 10 -90t32 -70t55.5 -45t81.5 -16zM820 364q0 -82 -20 -152t-60 -121.5t-100.5 -80.5t-140.5 -29q-137 0 -213 76q-45 -22 -123.5 -34
t-191.5 -13v171q156 1 185 35v1q12 12 12 151v20q0 147 87 259q84 109 241 109q80 0 140.5 -31t101 -84t61.5 -124.5t21 -152.5z" />
    <glyph glyph-name="afii62821" unicode="&#x645;" horiz-adv-x="964" arabic-form="medial" 
d="M310 372q0 -50 10 -91t31.5 -70t55.5 -44.5t82 -15.5q175 0 175 221q0 218 -175 218q-179 0 -179 -218zM981 10q-51 1 -85.5 7.5t-59.5 20.5t-43.5 36.5t-37.5 55.5l-9 -14q-81 -135 -256 -135q-54 0 -138 45q-35 21 -60.5 44t-43.5 47l-14 18l-5 -23q-19 -100 -270 -102
v171q157 1 186 35q12 13 13 48q1 18 1.5 48.5t0.5 75.5q0 144 86 259q82 109 238 109q158 0 244 -110q87 -111 87 -274q0 -36 1 -66.5t8 -54.5t22.5 -40t43.5 -23q16 -4 39 -5t52 -2v-171z" />
    <glyph glyph-name="afii62825" unicode="&#x646;" horiz-adv-x="1515" arabic-form="final" 
d="M1526 10q-143 3 -195 87l-19 31v-37q0 -261 -148 -430q-133 -136 -326 -136h-296q-175 0 -313 148q-137 148 -137 339v388h168v-414q0 -110 89 -201q90 -92 231 -92h245q122 0 219 82t97 211v607h168v-266q0 -143 217 -146v-171zM797 872q0 -20 -9 -41t-23.5 -38.5
t-33.5 -28.5t-39 -11q-57 0 -94.5 30t-37.5 87q0 24 9.5 45.5t25.5 38t37.5 26.5t45.5 10t45.5 -9.5t38 -25.5t26 -37.5t9.5 -45.5z" />
    <glyph glyph-name="afii62823" unicode="&#x646;" horiz-adv-x="623" arabic-form="initial" 
d="M353 1024q20 0 41.5 -9t38.5 -23.5t28 -33.5t11 -39q0 -24 -7.5 -47.5t-21.5 -42t-33.5 -30t-42.5 -11.5q-64 0 -98.5 33.5t-34.5 97.5q0 19 11.5 38t28.5 34t38.5 24t40.5 9zM546 313q0 -56 -21.5 -110.5t-58.5 -97t-86 -69t-105 -26.5h-300v171h240q101 0 138 52v1h1
q15 26 15 107v252h177v-280z" />
    <glyph glyph-name="afii62824" unicode="&#x646;" horiz-adv-x="785" arabic-form="medial" 
d="M409 1034q20 0 41.5 -9t38.5 -23.5t28 -33.5t11 -39q0 -24 -7.5 -47.5t-21.5 -42t-33.5 -30t-42.5 -11.5q-64 0 -98.5 33.5t-34.5 97.5q0 19 11.5 38t28.5 34t38.5 24t40.5 9zM315 181q44 0 73 8t46 27t24 49.5t7 75.5v252h174v-252q0 -49 9 -80t29.5 -48.5t54 -24
t83.5 -7.5v-171l-102 4l-55 8l-42 21l-60 48q-97 -81 -184 -81h-401v171h344z" />
    <glyph glyph-name="afii62828" unicode="&#x647;" horiz-adv-x="1186" arabic-form="final" 
d="M492 151q35 0 70 14.5t62.5 39t44.5 56.5t17 67q0 57 -36 114l-81 81q-27 27 -47 47.5t-34 34.5l-7 -8q-54 -49 -89 -87t-52 -65q-33 -52 -33 -109q0 -58 46 -119q48 -66 139 -66zM839 224q-54 -116 -139.5 -176.5t-210.5 -60.5q-144 0 -250 104q-105 104 -105 255
q0 101 72 207q18 29 59.5 74t97.5 101l-56 66l117 117l567 -603q38 -39 64.5 -65.5t43.5 -40.5h1l1 -1q39 -18 117 -20v-171q-136 1 -169 34h-1q-16 6 -209 180z" />
    <glyph glyph-name="afii62829" unicode="&#x648;" horiz-adv-x="951" arabic-form="final" 
d="M650 10q-114 0 -204 15t-152.5 55.5t-96 110.5t-33.5 179q0 229 113 329q72 57 221 57q214 0 296 -178q47 -112 47 -387v-10h130v-171h-130v-10q0 -72 -18.5 -134t-50 -113.5t-74.5 -92t-91 -68.5q-57 -33 -118.5 -50t-130.5 -17h-238l-26 168h233q147 0 240 93t93 214
v10h-10zM669 375q0 45 -12 84t-35 67.5t-57 44.5t-78 16q-148 0 -148 -207q0 -118 65 -160q62 -39 254 -39h11v194z" />
    <glyph glyph-name="afii62830" unicode="&#x649;" horiz-adv-x="1373" arabic-form="final" 
d="M1217 10l9 -103q0 -159 -127 -271q-123 -111 -282 -111h-298q-213 0 -349 163q-115 155 -115 381v331h174v-408q0 -104 72 -194v-1h1q96 -104 261 -104h245q98 0 173 57q73 57 73 168q0 62 -97 78q-43 8 -117.5 11t-180.5 3l-14 171h749v-171h-177z" />
    <glyph glyph-name="afii62833" unicode="&#x64a;" horiz-adv-x="1373" arabic-form="final" 
d="M498 -628q23 0 44.5 -10t38 -26.5t26.5 -38t10 -44.5q0 -20 -9 -41t-24 -38t-34 -27.5t-39 -10.5q-63 0 -97 34t-34 97q0 19 11 38t28.5 34t38.5 24t40 9zM791 -628q23 0 45 -10t38.5 -26.5t26.5 -38t10 -44.5q0 -20 -9 -41t-24 -38t-34 -27.5t-39 -10.5
q-63 0 -97.5 33.5t-34.5 97.5q0 20 11 39t28 33.5t38 23.5t41 9zM1217 10l9 -103q0 -159 -127 -271q-123 -111 -282 -111h-298q-213 0 -349 163q-115 155 -115 381v331h174v-408q0 -104 72 -194v-1h1q96 -104 261 -104h245q98 0 173 57q73 57 73 168q0 62 -97 78
q-43 8 -117.5 11t-180.5 3l-14 171h749v-171h-177z" />
    <glyph glyph-name="afii62831" unicode="&#x64a;" horiz-adv-x="623" arabic-form="initial" 
d="M546 313q0 -56 -21.5 -110.5t-58.5 -97t-86 -69t-105 -26.5h-300v171h240q101 0 138 52v1h1q15 26 15 107v252h177v-280zM175 -193q23 0 44.5 -10t38 -26.5t26.5 -38t10 -44.5q0 -20 -9 -41t-24 -38t-34 -27.5t-39 -10.5q-63 0 -97 34t-34 97q0 19 11 38t28.5 34t38.5 24
t40 9zM468 -193q23 0 45 -10t38.5 -26.5t26.5 -38t10 -44.5q0 -20 -9 -41t-24 -38t-34 -27.5t-39 -10.5q-63 0 -97.5 33.5t-34.5 97.5q0 20 11 39t28 33.5t38 23.5t41 9z" />
    <glyph glyph-name=".notdef" horiz-adv-x="1024" 
d="M102 1092h820v-1092h-820v1092zM820 102v888h-616v-888h616z" />
    <glyph glyph-name=".null" 
 />
    <glyph glyph-name=".null" 
 />
    <glyph glyph-name="nonmarkingreturn" unicode="&#xd;" horiz-adv-x="512" 
 />
    <glyph glyph-name="space" unicode=" " horiz-adv-x="348" 
 />
    <glyph glyph-name="quotedbl" unicode="&#x22;" horiz-adv-x="857" 
d="M517 1227q37 -2 47.5 -20t10.5 -58q0 -3 -2.5 -29t-6.5 -63t-8 -80t-8 -80t-6.5 -63t-2.5 -30h-52q0 7 -2.5 35t-6 66t-7.5 81.5t-7.5 82t-6 66.5t-2.5 36q0 31 14 43.5t46 12.5zM265 1227q37 -2 47.5 -20t10.5 -58q0 -3 -2.5 -29t-6.5 -63t-8 -80t-8 -80t-6.5 -63
t-2.5 -30h-52q0 7 -2.5 35t-6 66t-7.5 81.5t-7.5 82t-6 66.5t-2.5 36q0 31 14 43.5t46 12.5z" />
    <glyph glyph-name="numbersign" unicode="#" horiz-adv-x="764" 
d="M523 624h-233l-53 -264h231zM24 280v80h131l56 264h-187v80h202l60 287h78l-60 -287h234l60 287h79l-57 -287h117v-80h-134l-54 -264h188v-80h-205l-57 -286h-81l58 286h-232l-58 -286h-80l59 286h-117z" />
    <glyph glyph-name="dollar" unicode="$" horiz-adv-x="764" 
d="M403 70q39 4 72.5 19.5t58 41.5t39 61t14.5 77q0 88 -43 128q-40 38 -141 68v-395zM353 930q-34 -6 -65.5 -19.5t-55 -35.5t-37.5 -52.5t-14 -69.5q0 -145 172 -185v362zM80 743q0 63 20.5 110t57 79.5t86.5 51.5t109 25v58h50v-58q230 -26 263 -226l-105 -14
q-27 137 -158 160v-370q79 -20 128 -37q159 -70 159 -242q0 -63 -20.5 -114.5t-57.5 -89t-88 -59.5t-111 -25h-10v-123h-50v119q-94 12 -140 35q-137 74 -152 243l101 18q35 -199 191 -214v405q-43 11 -80 23.5t-68 29.5q-125 69 -125 215z" />
    <glyph glyph-name="percent" unicode="%" horiz-adv-x="866" 
d="M722 99q0 -36 -25.5 -61t-61.5 -25q-37 0 -61.5 24.5t-24.5 61.5q0 35 25.5 61t60.5 26q17 0 33 -7t28 -19t19 -28t7 -33zM273 888q0 -17 -7 -32.5t-19 -27.5t-27.5 -19t-32.5 -7q-35 0 -61 25.5t-26 60.5q0 36 25.5 61t61.5 25q17 0 32.5 -7t27.5 -19t19 -27.5t7 -32.5z
M233 6h-125l535 979h131z" />
    <glyph glyph-name="ampersand" unicode="&#x26;" horiz-adv-x="917" 
d="M358 501q-145 -82 -171 -169q-7 -21 -7 -55q0 -66 49 -130q50 -68 143 -68q34 0 68 12t63 31.5t52 43t35 47.5zM543 792q0 25 -9.5 47t-26 38t-38.5 25.5t-47 9.5t-48 -9t-40 -25t-27 -38t-10 -47q0 -54 48 -108l60 -69q89 51 112 88q26 39 26 88zM425 991q44 0 84.5 -15
t71 -41t48.5 -62.5t18 -80.5q0 -134 -182 -230l-10 -7l194 -249q20 39 32.5 75t20.5 71l106 -24q-18 -65 -40 -115.5t-48 -88.5q40 -50 77.5 -88.5t72.5 -64.5l-68 -80q-74 54 -149 140l-8 -8q-114 -129 -267 -129q-151 0 -238 99q-71 80 -71 178q0 56 20.5 101.5t54.5 81.5
t77 62.5t89 45.5q-100 128 -112 177q-3 11 -4 21.5t-1 20.5q0 45 19.5 83t51.5 66.5t74 44.5t87 16z" />
    <glyph glyph-name="quotesingle" unicode="'" horiz-adv-x="491" 
d="M265 1227q37 -2 47.5 -20t10.5 -58q0 -3 -2.5 -29t-6.5 -63t-8 -80t-8 -80t-6.5 -63t-2.5 -30h-52q0 7 -2.5 35t-6 66t-7.5 81.5t-7.5 82t-6 66.5t-2.5 36q0 31 14 43.5t46 12.5z" />
    <glyph glyph-name="parenleft" unicode="(" horiz-adv-x="722" 
d="M387 -55q-274 362 -274 704q0 180 78 358l1 1q49 151 195 324h96q-122 -228 -152 -341q-54 -174 -54 -382q0 -305 207 -664h-97z" />
    <glyph glyph-name="parenright" unicode=")" horiz-adv-x="636" 
d="M121 -55q207 359 207 653q0 152 -28 287.5t-84 257.5q-17 37 -40 84t-54 105h95q145 -167 196 -324l1 -1q77 -176 77 -358q0 -342 -274 -704h-96z" />
    <glyph glyph-name="asterisk" unicode="*" horiz-adv-x="945" 
d="M492 604l-198 -201h-59l233 234h-285l12 57h290l-227 223h49l190 -186l5 269l79 26l-5 -284l188 175h60l-237 -223h294l-14 -57h-280l230 -234h-48l-194 200l-8 -271l-80 -25z" />
    <glyph glyph-name="plus" unicode="+" horiz-adv-x="1052" 
d="M469 496h-334v119h334v333h119v-333h333v-119h-333v-333h-119v333z" />
    <glyph glyph-name="comma" unicode="," horiz-adv-x="217" 
d="M56 -129h-50l75 260h96z" />
    <glyph glyph-name="hyphen" unicode="-" horiz-adv-x="1054" 
d="M135 615h786v-119h-786v119z" />
    <glyph glyph-name="period" unicode="." horiz-adv-x="571" 
d="M449 142q0 -26 -11 -49.5t-29 -41t-42 -28t-50 -10.5t-49.5 10.5t-41 28t-28 41t-10.5 49.5t10.5 50t28 42t41 28.5t49.5 10.5t50 -11t42 -29t29 -41.5t11 -49.5z" />
    <glyph glyph-name="slash" unicode="/" horiz-adv-x="866" 
d="M233 6h-125l535 979h131z" />
    <glyph glyph-name="colon" unicode=":" horiz-adv-x="558" 
d="M406 736q0 -24 -9 -45t-24.5 -36t-36.5 -24t-45 -9t-44.5 9t-36.5 24.5t-25 36t-9 44.5t9 45t25 36.5t36.5 25t44.5 9.5q23 0 44 -9.5t37 -25.5t25 -37t9 -44zM406 129q0 -24 -9 -44.5t-25 -36t-36.5 -24t-44.5 -8.5t-44.5 8.5t-36.5 24t-25 36t-9 44.5t9 45t24.5 37
t36.5 25.5t45 9.5t44.5 -9.5t36.5 -25.5t25 -37t9 -45z" />
    <glyph glyph-name="semicolon" unicode=";" horiz-adv-x="301" 
d="M169 139q27 0 45 -19t18 -46v-106q0 -80 -83 -80h-29v40q62 6 62 53q0 13 -6 27h-7q-65 0 -65 66q0 25 20 45t45 20zM237 416q0 -25 -19 -44t-44 -19q-26 0 -45 18.5t-19 44.5t19 44.5t45 18.5q25 0 44 -19t19 -44z" />
    <glyph glyph-name="less" unicode="&#x3c;" horiz-adv-x="937" 
d="M136 379v63l656 312v-89l-538 -254l538 -256v-90z" />
    <glyph glyph-name="equal" unicode="=" horiz-adv-x="971" 
d="M886 460v-120h-806v120h806zM886 717v-121h-806v121h806z" />
    <glyph glyph-name="greater" unicode="&#x3e;" horiz-adv-x="937" 
d="M145 65v90l540 256l-540 254v89l656 -312v-63z" />
    <glyph glyph-name="question" unicode="?" horiz-adv-x="764" 
d="M437 127v-117h-117v117h117zM72 727q17 124 94.5 194t217.5 70q60 0 115 -18t96.5 -51.5t66 -81t24.5 -106.5q0 -63 -30 -116q-27 -49 -111 -122q-75 -65 -96 -106q-22 -43 -26 -138h-95v27q0 56 12.5 96.5t33.5 72t48.5 57t57.5 51.5q63 55 82 92q22 38 22 76
q0 39 -17 73t-45 59.5t-64 40.5t-75 15q-169 0 -208 -197z" />
    <glyph glyph-name="at" unicode="@" horiz-adv-x="1396" 
d="M899 150q0 -22 18 -36t40 -14q35 0 90 36q32 23 64 56.5t57.5 76t41 91.5t15.5 101q0 271 -234 395q-112 60 -256 60q-249 0 -411 -168q-161 -167 -161 -427q0 -129 43.5 -227t121.5 -163.5t186.5 -98.5t238.5 -33q163 0 286 53t193 149h98q-53 -100 -196 -187
q-151 -92 -380 -92h-15q-209 0 -370 86q-281 152 -284 511q0 161 66 305q168 368 590 368q92 0 168.5 -19t138.5 -53.5t110 -83.5t82 -108q64 -119 64 -249q0 -194 -134 -338q-119 -133 -261 -133q-62 0 -87 23t-31 80l-2 24l-16 -17q-96 -110 -200 -110q-131 0 -197 136
q-35 76 -35 140q0 72 21.5 140t57.5 124.5t84 97.5t101 59q35 12 75 12q121 0 193 -119l13 -23l28 123h99l-94 -438q-10 -47 -15 -74t-5 -36zM854 442q0 36 -11 71.5t-31 63t-48.5 45t-63.5 17.5q-45 0 -82 -18t-66 -46.5t-49.5 -64t-31.5 -70.5q-26 -81 -26 -163
q0 -32 10.5 -65.5t29.5 -61.5t45.5 -45.5t57.5 -17.5q45 0 82.5 17.5t67 45.5t51.5 63t35 69q30 80 30 160z" />
    <glyph glyph-name="braceleft" unicode="{" horiz-adv-x="458" 
d="M49 401q42 2 68.5 19.5t42 46t21 66.5t5.5 82q0 11 0.5 27t0.5 36v41q0 42 1 72.5t6 55.5t15 47.5t28 48.5q35 46 153 48h28v-85h-13q-68 0 -96 -26t-28 -94q0 -11 -0.5 -27t-0.5 -37q0 -59 -1.5 -104t-5.5 -80q-7 -39 -16 -65.5t-23.5 -45t-35.5 -33t-53 -29.5l-22 -10
l22 -9q42 -16 68 -40t41 -58.5t20.5 -80.5t5.5 -106q0 -69 1 -112.5t3 -61.5q6 -46 34 -63.5t82 -17.5h18v-84h-28q-33 0 -56 2t-41 8t-32.5 16.5t-28.5 28.5q-26 31 -35 80q-2 11 -4 52.5t-5 116.5q-6 149 -12 176q-22 99 -127 109v90z" />
    <glyph glyph-name="braceright" unicode="}" horiz-adv-x="458" 
d="M52 -194q41 0 65.5 7.5t38 25t18 46t4.5 70.5q0 176 9 227q16 119 126 164l21 9l-21 10q-72 36 -104 95q-31 60 -31 210q0 161 -9 182q-13 35 -40 44.5t-77 9.5h-10v85h27q90 0 135 -31.5t58 -107.5q0 -2 1.5 -28t3.5 -63t4.5 -80t4.5 -80t4 -62.5t2 -27.5
q23 -104 130 -110v-90q-50 -4 -77.5 -26.5t-41 -58.5t-16.5 -83.5t-5 -100.5q-1 -44 -1 -82t-4 -71t-13 -61.5t-28 -53.5q-40 -52 -157 -52h-27v84h10z" />
    <glyph glyph-name="copyright" unicode="&#xa9;" horiz-adv-x="1044" 
d="M377 388q0 65 22.5 121.5t62.5 98.5t95 66t119 24q76 0 154 -22l-25 -97l-25 4l6 67q-70 30 -120 30q-37 0 -68 -13.5t-55.5 -35t-42.5 -49t-29 -56.5q-25 -65 -25 -138q0 -82 40 -126.5t121 -44.5q36 0 70 6.5t66 18.5l-5 -27q-43 -14 -79.5 -20t-67.5 -6
q-48 0 -87.5 13.5t-67.5 39t-43.5 62.5t-15.5 84zM297 134q130 -130 313 -130t313 130t130 313q0 184 -130 314q-129 129 -313 129t-313 -129q-130 -130 -130 -314q0 -183 130 -313zM610 907q190 0 325 -135t135 -325t-134 -324q-136 -136 -326 -136q-186 0 -325 136
q-135 134 -135 324q0 193 135 326q135 134 325 134z" />
    <glyph glyph-name="guillemotleft" unicode="&#xab;" horiz-adv-x="705" 
d="M245 600q36 60 120 90q-4 -10 -9 -21t-11 -25q-13 -27 -24.5 -62.5t-20 -75.5t-13.5 -82.5t-5 -82.5v-3q0 -172 72 -322q10 -20 11 -25q-84 30 -120 88q-64 106 -64 259q0 156 64 262zM480 600q36 59 121 90q-4 -10 -9 -21t-11 -25q-13 -27 -24.5 -62.5t-20 -75.5
t-13.5 -82.5t-5 -82.5v-3q0 -174 71 -322q5 -9 8 -15t4 -10q-86 31 -121 88q-64 106 -64 259q0 156 64 262z" />
    <glyph glyph-name="logicalnot" unicode="&#xac;" horiz-adv-x="782" 
d="M170 485h636l-53 -267h-57l44 221h-578z" />
    <glyph glyph-name="registered" unicode="&#xae;" horiz-adv-x="752" 
d="M482 647q114 0 114 81q0 51 -86 51h-45l-26 -132h43zM621 735q0 -56 -88 -100l35 -109h46l-3 -15h-65l-42 119h-68l-23 -119h-70l3 15h46l50 253h-45l3 16h102q119 0 119 -60zM487 887q-49 0 -93 -20t-77.5 -53.5t-53.5 -78t-20 -93.5t19.5 -93.5t53 -78.5t78 -54
t93.5 -20q50 0 95 19.5t78.5 53.5t53 78.5t19.5 94.5t-19.5 94.5t-53.5 78t-78.5 53t-94.5 19.5zM488 900q53 0 100 -20.5t82 -56t55.5 -82t20.5 -99.5q0 -52 -21 -99t-56 -82t-82 -56t-100 -21q-52 0 -99 20.5t-82 56t-55.5 82.5t-20.5 99q0 53 20.5 99.5t56 82t82.5 56
t99 20.5z" />
    <glyph glyph-name="macron" unicode="&#xaf;" horiz-adv-x="938" 
d="M-3 1068v88h945v-88h-945z" />
    <glyph glyph-name="degree" unicode="&#xb0;" horiz-adv-x="343" 
d="M332 890q-32 0 -55 -22.5t-23 -54.5t23 -55t55 -23t54 23t22 55t-22 54.5t-54 22.5zM333 907q39 0 65.5 -27.5t26.5 -66.5q0 -19 -7.5 -36t-20 -30t-29 -20.5t-35.5 -7.5t-36.5 7.5t-30.5 20.5t-20.5 30t-7.5 36t7.5 36t20.5 30t30.5 20.5t36.5 7.5z" />
    <glyph glyph-name="periodcentered" unicode="&#xb7;" horiz-adv-x="607" 
d="M214 710v218h181v-218h-181z" />
    <glyph glyph-name="guillemotright" unicode="&#xbb;" horiz-adv-x="693" 
d="M310 80q-35 -60 -121 -89q17 42 35 84t30 100q18 84 18 163v3q0 175 -71 323l-5 10t-7 16q85 -30 121 -90q64 -106 64 -258q0 -156 -64 -262zM545 80q-35 -60 -121 -89q17 42 35 84t30 100q18 84 18 163v3q0 175 -71 323l-5 10t-7 16q85 -30 121 -90q64 -106 64 -258
q0 -156 -64 -262z" />
    <glyph glyph-name="multiply" unicode="&#xd7;" horiz-adv-x="973" 
d="M445 555l-236 237l84 84l236 -237l235 236l84 -84l-235 -236l235 -235l-84 -85l-235 235l-236 -235l-84 84z" />
    <glyph glyph-name="divide" unicode="&#xf7;" horiz-adv-x="1081" 
d="M479 91v153h130v-153h-130zM182 442v82h724v-82h-724zM479 722v153h130v-153h-130z" />
    <glyph glyph-name="afii57388" unicode="&#x60c;" horiz-adv-x="512" 
d="M284 244q63 0 94.5 -29t31.5 -91q0 -102 -119 -102t-119 102q0 167 29 233q39 98 168 102v-87q-96 -6 -96 -118v-10h11z" />
    <glyph glyph-name="afii57403" unicode="&#x61b;" horiz-adv-x="574" 
d="M159 151q0 24 9 46.5t25 39t37 26.5t45 10t46 -10t38.5 -26.5t26 -39t9.5 -46.5q0 -25 -9.5 -46.5t-26 -37.5t-38 -25.5t-46.5 -9.5t-46.5 9t-37 25t-24 38t-8.5 47zM250 743q63 0 94 -28.5t31 -91.5q0 -102 -118 -102t-118 102q0 170 27 233q39 98 168 102v-88
q-95 -6 -95 -116v-11h11z" />
    <glyph glyph-name="afii57407" unicode="&#x61f;" horiz-adv-x="863" 
d="M440 213q57 0 87.5 -21t30.5 -75q0 -38 -34 -78q-40 -29 -82 -29q-45 0 -86 30q-33 33 -33 77q0 54 30 75t87 21zM434 1075q-35 0 -65 -10.5t-52.5 -30.5t-35 -47.5t-12.5 -62.5q0 -59 22 -96q22 -27 52.5 -58.5t60.5 -64t55 -63.5t37 -57l22 -97l9 -116h-162
q-1 54 -8.5 97t-23.5 75q-13 24 -94 108q-44 43 -72.5 77t-43.5 60q-31 53 -31 129q0 71 25.5 127.5t70 96t105.5 61t132 21.5q62 0 116.5 -15.5t98 -43.5t74 -67t44.5 -87l13 -78l7 -97h-164q-6 239 -180 239z" />
    <glyph glyph-name="afii57409" unicode="&#x621;" horiz-adv-x="799" 
d="M531 366q-36 0 -59 -22t-23 -58q0 -31 16.5 -55.5t48.5 -24.5q55 0 167 54l45 -96l-436 -183l-32 90l166 68l-18 11q-37 21 -54 53.5t-17 89.5q2 36 18 69t42 58.5t59.5 40.5t71.5 15q70 0 125 -47l-43 -91q-46 28 -77 28z" />
    <glyph glyph-name="afii52400" unicode="&#x622;" horiz-adv-x="667" 
d="M276 9v1057h171v-1057h-171zM256 1224q-75 0 -113 -38q-37 -37 -69 -98l-130 48q61 143 105 176q21 18 40.5 29.5t41.5 19t49.5 11t64.5 4.5h407v-152h-396z" />
    <glyph glyph-name="afii57411" unicode="&#x623;" horiz-adv-x="476" 
d="M233 1559q0 -34 28.5 -50.5t63.5 -16.5h1q44 0 146 40l29 -69l-364 -132l-20 65l94 36q-58 54 -58 100q0 36 14.5 68.5t39 57.5t56 39.5t65.5 15.5q56 0 106 -44l-43 -63q-29 26 -70 26q-35 0 -61.5 -19.5t-26.5 -53.5zM220 10v1211h171v-1211h-171z" />
    <glyph glyph-name="afii57412" unicode="&#x624;" horiz-adv-x="885" 
d="M652 393q0 89 -38.5 141.5t-123.5 52.5q-47 0 -77 -14t-47 -41t-23.5 -65.5t-6.5 -88.5q0 -119 60 -160q58 -37 246 -37h10v212zM820 -26q0 -164 -136 -306q-137 -143 -334 -143h-236l-24 168h230q147 0 240 93q92 92 92 214v10h-10q-218 0 -338 60q-149 72 -149 300
q0 230 113 329q74 59 222 59q212 0 290 -174q40 -105 40 -369v-241zM348 1129q0 -34 28.5 -50.5t63.5 -16.5h1q44 0 146 40l29 -69l-364 -132l-20 65l94 36q-58 54 -58 100q0 36 14.5 68.5t39 57.5t56 39.5t65.5 15.5q56 0 106 -44l-43 -63q-29 26 -70 26q-35 0 -61.5 -19.5
t-26.5 -53.5z" />
    <glyph glyph-name="afii57413" unicode="&#x625;" horiz-adv-x="476" 
d="M220 10v1211h171v-1211h-171zM207 -327q0 -35 28.5 -51t63.5 -16h1q44 0 146 40l29 -69l-364 -132l-20 65l94 36q-58 54 -58 100q0 36 14.5 68.5t39 57t56 39.5t65.5 16q56 0 106 -44l-43 -63q-29 26 -70 26q-35 0 -61.5 -19.5t-26.5 -53.5z" />
    <glyph glyph-name="afii57414" unicode="&#x626;" horiz-adv-x="1373" 
d="M692 350q0 66 26.5 126t71 106t103.5 73t125 27h224l9 -157h-225q-102 0 -152 -101l-1 -1q-11 -41 -17.5 -95.5t-6.5 -125.5v-11h11q253 0 344 -44q97 -52 97 -209q0 -124 -36 -196l-1 -1q-21 -83 -105 -162q-134 -128 -321 -128h-296q-179 0 -314 147q-131 143 -131 340
v383h159v-408q0 -131 115 -228q95 -67 209 -67h250q103 0 199 69q105 90 105 192q0 105 -80 131q-37 11 -127 17.5t-235 6.5v316zM386 908q0 -34 28.5 -50.5t63.5 -16.5h1q44 0 146 40l29 -69l-364 -132l-20 65l94 36q-58 54 -58 100q0 36 14.5 68.5t39 57.5t56 39.5
t65.5 15.5q56 0 106 -44l-43 -63q-29 26 -70 26q-35 0 -61.5 -19.5t-26.5 -53.5z" />
    <glyph glyph-name="afii57415.001" unicode="&#x627;" horiz-adv-x="476" 
d="M220 10v1211h171v-1211h-171z" />
    <glyph glyph-name="afii57416" unicode="&#x628;" horiz-adv-x="1696" 
d="M353 10q-55 0 -103 27t-84 70t-56.5 97t-20.5 109v280h171v-252q0 -68 18 -106v-1h1q35 -53 132 -53h898q44 0 73 8.5t46.5 27.5t25 49.5t7.5 74.5v252h172v-280q0 -119 -83 -211q-84 -92 -184 -92h-1013zM852 -191q20 0 41.5 -9t38.5 -23.5t28 -33.5t11 -39
q0 -24 -7.5 -47.5t-21.5 -42t-33.5 -30t-42.5 -11.5q-64 0 -98.5 33.5t-34.5 97.5q0 19 11.5 38t28.5 34t38.5 24t40.5 9z" />
    <glyph glyph-name="afii57417" unicode="&#x629;" horiz-adv-x="863" 
d="M442 151q37 0 70.5 14t58.5 38.5t40 57t15 69.5q0 66 -30 103l-164 172q-53 -53 -89.5 -93t-58.5 -69l-2 -1l-21 -42l-13 -67v-1q0 -39 44 -110v-3q59 -68 150 -68zM709 555q88 -110 88 -234q0 -126 -107 -230t-251 -104q-147 0 -249 106q-102 107 -102 253q0 103 61 207
l60 76l102 99l-57 67l116 116zM265 1278q23 0 44.5 -10t38 -26.5t26.5 -38t10 -44.5q0 -20 -9 -41t-24 -38t-34 -27.5t-39 -10.5q-63 0 -97 34t-34 97q0 19 11 38t28.5 34t38.5 24t40 9zM558 1278q23 0 45 -10t38.5 -26.5t26.5 -38t10 -44.5q0 -20 -9 -41t-24 -38t-34 -27.5
t-39 -10.5q-63 0 -97.5 33.5t-34.5 97.5q0 20 11 39t28 33.5t38 23.5t41 9z" />
    <glyph glyph-name="afii57418" unicode="&#x62a;" horiz-adv-x="1691" 
d="M353 10q-55 0 -103 27t-84 70t-56.5 97t-20.5 109v280h171v-252q0 -68 18 -106v-1h1q35 -53 132 -53h898q44 0 73 8.5t46.5 27.5t25 49.5t7.5 74.5v252h172v-280q0 -119 -83 -211q-84 -92 -184 -92h-1013zM741 1031q23 0 44.5 -10t38 -26.5t26.5 -38t10 -44.5
q0 -20 -9 -41t-24 -38t-34 -27.5t-39 -10.5q-63 0 -97 34t-34 97q0 19 11 38t28.5 34t38.5 24t40 9zM1034 1031q23 0 45 -10t38.5 -26.5t26.5 -38t10 -44.5q0 -20 -9 -41t-24 -38t-34 -27.5t-39 -10.5q-63 0 -97.5 33.5t-34.5 97.5q0 20 11 39t28 33.5t38 23.5t41 9z" />
    <glyph glyph-name="afii57419" unicode="&#x62b;" horiz-adv-x="1698" 
d="M353 10q-55 0 -103 27t-84 70t-56.5 97t-20.5 109v280h171v-252q0 -68 18 -106v-1h1q35 -53 132 -53h898q44 0 73 8.5t46.5 27.5t25 49.5t7.5 74.5v252h172v-280q0 -119 -83 -211q-84 -92 -184 -92h-1013zM1001 1032q23 0 45 -10t38.5 -26.5t26.5 -38t10 -44.5
q0 -24 -10 -45.5t-26.5 -37.5t-38 -25.5t-45.5 -9.5t-45.5 9.5t-37.5 25.5t-25.5 37.5t-9.5 45.5t9.5 45.5t26 38t37.5 26t45 9.5zM810 913q0 -24 -9.5 -45t-26 -37.5t-38 -26t-45.5 -9.5t-45.5 9.5t-37 25.5t-25 37.5t-9.5 45.5q0 23 9.5 44.5t25.5 38t37.5 26.5t44.5 10
t44.5 -10t38 -26.5t26.5 -38t10 -44.5zM958 1205q0 -23 -10 -44.5t-26.5 -38t-38 -26.5t-44.5 -10q-24 0 -45 9.5t-37 26t-25.5 38t-9.5 45.5q0 23 9.5 44.5t25.5 38t37.5 26.5t44.5 10t44.5 -10t38 -26.5t26.5 -38t10 -44.5z" />
    <glyph glyph-name="afii57420" unicode="&#x62c;" horiz-adv-x="1293" 
d="M855 -205q20 0 41.5 -9t38.5 -23.5t28 -33.5t11 -39q0 -24 -7.5 -47.5t-21.5 -42t-33.5 -30t-42.5 -11.5q-64 0 -98.5 33.5t-34.5 97.5q0 19 11.5 38t28.5 34t38.5 24t40.5 9zM796 -919q-298 0 -485 214q-138 168 -138 370v38l5 43q29 262 270 389l602 329
q-54 95 -139 111q-79 15 -506 15l-25 166h453q186 0 286.5 -97t102.5 -281l-624 -352q-263 -148 -263 -367q0 -160 132 -281q131 -122 279 -122h549l14 -175h-513z" />
    <glyph glyph-name="afii57421" unicode="&#x62d;" horiz-adv-x="1293" 
d="M796 -919q-298 0 -485 214q-138 168 -138 370v38l5 43q29 262 270 389l602 329q-54 95 -139 111q-79 15 -506 15l-25 166h453q186 0 286.5 -97t102.5 -281l-624 -352q-263 -148 -263 -367q0 -160 132 -281q131 -122 279 -122h549l14 -175h-513z" />
    <glyph glyph-name="afii57422" unicode="&#x62e;" horiz-adv-x="1293" 
d="M796 -919q-298 0 -485 214q-138 168 -138 370v38l5 43q29 262 270 389l602 329q-54 95 -139 111q-79 15 -506 15l-25 166h453q186 0 286.5 -97t102.5 -281l-624 -352q-263 -148 -263 -367q0 -160 132 -281q131 -122 279 -122h549l14 -175h-513zM691 1182q20 0 41.5 -9
t38.5 -23.5t28 -33.5t11 -39q0 -24 -7.5 -47.5t-21.5 -42t-33.5 -30t-42.5 -11.5q-64 0 -98.5 33.5t-34.5 97.5q0 19 11.5 38t28.5 34t38.5 24t40.5 9z" />
    <glyph glyph-name="afii57423" unicode="&#x62f;" horiz-adv-x="1096" 
d="M1037 256q0 -58 -20.5 -104t-57 -77.5t-86.5 -48t-109 -16.5h-580l-24 171h594q120 0 120 86q0 43 -37 77l-422 451l113 116l429 -452q80 -89 80 -203z" />
    <glyph glyph-name="afii57424" unicode="&#x630;" horiz-adv-x="1096" 
d="M1037 256q0 -58 -20.5 -104t-57 -77.5t-86.5 -48t-109 -16.5h-580l-24 171h594q120 0 120 86q0 43 -37 77l-422 451l113 116l429 -452q80 -89 80 -203zM457 1291q20 0 41.5 -9t38.5 -23.5t28 -33.5t11 -39q0 -24 -7.5 -47.5t-21.5 -42t-33.5 -30t-42.5 -11.5
q-64 0 -98.5 33.5t-34.5 97.5q0 19 11.5 38t28.5 34t38.5 24t40.5 9z" />
    <glyph glyph-name="afii57425" unicode="&#x631;" horiz-adv-x="872" 
d="M262 -299q106 0 184 34t127 95q53 67 53 156v607h179v-558q0 -204 -135 -357t-335 -153h-245l-29 176h201z" />
    <glyph glyph-name="afii57426" unicode="&#x632;" horiz-adv-x="872" 
d="M262 -299q106 0 184 34t127 95q53 67 53 156v607h179v-558q0 -204 -135 -357t-335 -153h-245l-29 176h201zM618 1042q20 0 41.5 -9t38.5 -23.5t28 -33.5t11 -39q0 -24 -7.5 -47.5t-21.5 -42t-33.5 -30t-42.5 -11.5q-64 0 -98.5 33.5t-34.5 97.5q0 19 11.5 38t28.5 34
t38.5 24t40.5 9z" />
    <glyph glyph-name="afii57427" unicode="&#x633;" horiz-adv-x="2357" 
d="M2296 307q0 -69 -23 -124.5t-65 -95t-101 -60.5t-130 -21q-111 0 -242 111q-96 -111 -247 -111q-66 0 -149 72l-18 14v-23q0 -241 -135 -392q-135 -152 -329 -152h-294q-185 0 -323 144q-138 145 -138 343v388h167v-397q0 -66 25 -122.5t68 -98.5t101.5 -65.5
t124.5 -23.5h246q68 0 125.5 23t100.5 64.5t67 98t24 124.5v590h170v-275q0 -29 14 -55t37 -45.5t52 -30.5t58 -11q162 0 162 141v276h175v-273q0 -28 13.5 -54t35 -46t49.5 -32t56 -12q152 0 152 133v284h171v-286z" />
    <glyph glyph-name="afii57428" unicode="&#x634;" horiz-adv-x="2353" 
d="M2296 307q0 -69 -23 -124.5t-65 -95t-101 -60.5t-130 -21q-111 0 -242 111q-96 -111 -247 -111q-66 0 -149 72l-18 14v-23q0 -241 -135 -392q-135 -152 -329 -152h-294q-185 0 -323 144q-138 145 -138 343v388h167v-397q0 -66 25 -122.5t68 -98.5t101.5 -65.5
t124.5 -23.5h246q68 0 125.5 23t100.5 64.5t67 98t24 124.5v590h170v-275q0 -29 14 -55t37 -45.5t52 -30.5t58 -11q162 0 162 141v276h175v-273q0 -28 13.5 -54t35 -46t49.5 -32t56 -12q152 0 152 133v284h171v-286zM1892 1025q23 0 45 -10t38.5 -26.5t26.5 -38t10 -44.5
q0 -24 -10 -45.5t-26.5 -37.5t-38 -25.5t-45.5 -9.5t-45.5 9.5t-37.5 25.5t-25.5 37.5t-9.5 45.5t9.5 45.5t26 38t37.5 26t45 9.5zM1701 906q0 -24 -9.5 -45t-26 -37.5t-38 -26t-45.5 -9.5t-45.5 9.5t-37 25.5t-25 37.5t-9.5 45.5q0 23 9.5 44.5t25.5 38t37.5 26.5t44.5 10
t44.5 -10t38 -26.5t26.5 -38t10 -44.5zM1849 1198q0 -23 -10 -44.5t-26.5 -38t-38 -26.5t-44.5 -10q-24 0 -45 9.5t-37 26t-25.5 38t-9.5 45.5q0 23 9.5 44.5t25.5 38t37.5 26.5t44.5 10t44.5 -10t38 -26.5t26.5 -38t10 -44.5z" />
    <glyph glyph-name="afii57429" unicode="&#x635;" horiz-adv-x="2427" 
d="M2064 181q30 0 54.5 17t41.5 43.5t26.5 58.5t9.5 63q0 104 -74 199q-13 25 -52 25q-88 0 -202 -123q-116 -125 -194 -283h390zM2361 341q0 -75 -23 -136t-66 -104.5t-104 -67t-136 -23.5h-520q-157 0 -193 96l-20 53v-57q0 -248 -135 -413q-134 -164 -333 -164h-292
q-188 0 -326 155q-137 152 -137 355v365h168v-414q0 -98 98 -190q99 -95 214 -95h268q115 0 208 90q94 91 94 195v607h175v-275q0 -137 196 -137h8l2 6q104 273 245 423q138 146 280 146q70 0 143 -45q86 -48 135 -152l38 -111q13 -46 13 -107z" />
    <glyph glyph-name="afii57430" unicode="&#x636;" horiz-adv-x="2427" 
d="M2064 181q30 0 54.5 17t41.5 43.5t26.5 58.5t9.5 63q0 104 -74 199q-13 25 -52 25q-88 0 -202 -123q-116 -125 -194 -283h390zM2361 341q0 -75 -23 -136t-66 -104.5t-104 -67t-136 -23.5h-520q-157 0 -193 96l-20 53v-57q0 -248 -135 -413q-134 -164 -333 -164h-292
q-188 0 -326 155q-137 152 -137 355v365h168v-414q0 -98 98 -190q99 -95 214 -95h268q115 0 208 90q94 91 94 195v607h175v-275q0 -137 196 -137h8l2 6q104 273 245 423q138 146 280 146q70 0 143 -45q86 -48 135 -152l38 -111q13 -46 13 -107zM1520 1117q20 0 41.5 -9
t38.5 -23.5t28 -33.5t11 -39q0 -24 -7.5 -47.5t-21.5 -42t-33.5 -30t-42.5 -11.5q-64 0 -98.5 33.5t-34.5 97.5q0 19 11.5 38t28.5 34t38.5 24t40.5 9z" />
    <glyph glyph-name="afii57431" unicode="&#x637;" horiz-adv-x="1092" 
d="M747 584q-82 0 -198 -125q-54 -52 -98 -121t-82 -157h383q45 0 90 63l1 1q31 59 31 139q0 127 -64 181q-14 10 -61 19h-2zM995 560q53 -103 53 -227q0 -126 -75 -219q-78 -104 -221 -104h-658l-33 171h156v1040h169v-705l19 23q175 217 321 217q56 0 140 -45
q88 -48 129 -150v-1z" />
    <glyph glyph-name="afii57432" unicode="&#x638;" horiz-adv-x="1096" 
d="M747 584q-82 0 -198 -125q-54 -52 -98 -121t-82 -157h383q45 0 90 63l1 1q31 59 31 139q0 127 -64 181q-14 10 -61 19h-2zM995 560q53 -103 53 -227q0 -126 -75 -219q-78 -104 -221 -104h-658l-33 171h156v1040h169v-705l19 23q175 217 321 217q56 0 140 -45
q88 -48 129 -150v-1zM726 1170q20 0 41.5 -9t38.5 -23.5t28 -33.5t11 -39q0 -24 -7.5 -47.5t-21.5 -42t-33.5 -30t-42.5 -11.5q-64 0 -98.5 33.5t-34.5 97.5q0 19 11.5 38t28.5 34t38.5 24t40.5 9z" />
    <glyph glyph-name="afii57433" unicode="&#x639;" horiz-adv-x="1281" 
d="M586 10q-66 0 -117.5 -30t-87 -80t-53.5 -114t-18 -132q0 -154 102 -275q102 -123 295 -123h512l26 -175h-493q-263 0 -448 185q-166 169 -166 397q0 170 95 307q101 146 311 230q-65 132 -65 228q0 148 97 242q113 86 261 86q144 0 306 -138l-80 -129q-155 109 -261 109
q-111 0 -144 -114v-1q-2 -8 -3.5 -21t-7.5 -16v-36q0 -55 25 -118q51 -111 145 -111h371l24 -171h-626z" />
    <glyph glyph-name="afii57434" unicode="&#x63a;" horiz-adv-x="1281" 
d="M586 10q-66 0 -117.5 -30t-87 -80t-53.5 -114t-18 -132q0 -154 102 -275q102 -123 295 -123h512l26 -175h-493q-263 0 -448 185q-166 169 -166 397q0 170 95 307q101 146 311 230q-65 132 -65 228q0 148 97 242q113 86 261 86q144 0 306 -138l-80 -129q-155 109 -261 109
q-111 0 -144 -114v-1q-2 -8 -3.5 -21t-7.5 -16v-36q0 -55 25 -118q51 -111 145 -111h371l24 -171h-626zM843 1159q20 0 41.5 -9t38.5 -23.5t28 -33.5t11 -39q0 -24 -7.5 -47.5t-21.5 -42t-33.5 -30t-42.5 -11.5q-64 0 -98.5 33.5t-34.5 97.5q0 19 11.5 38t28.5 34t38.5 24
t40.5 9z" />
    <glyph glyph-name="afii57440" unicode="&#x640;" horiz-adv-x="498" 
d="M-13 10v171h531v-171h-531z" />
    <glyph glyph-name="afii57441" unicode="&#x641;" horiz-adv-x="1714" 
d="M1266 743q-71 0 -113 -31t-42 -100q0 -82 79 -100l78 -8h193v10q0 103 -66 178q-57 51 -129 51zM1275 916q72 0 135.5 -28t110.5 -76t74 -112.5t27 -136.5l6 -213q0 -186 -114 -276q-84 -64 -174 -64h-996q-101 0 -195 91q-69 90 -69 212v280h168v-252q0 -45 7 -75.5
t24.5 -49.5t47 -27t74.5 -8h917q94 0 124 43q1 2 7.5 33t17.5 91h-13q-296 0 -397 50q-87 51 -87 222q0 68 22 122.5t62.5 93t96.5 59.5t124 21zM1291 1313q20 0 41.5 -9t38.5 -23.5t28 -33.5t11 -39q0 -24 -7.5 -47.5t-21.5 -42t-33.5 -30t-42.5 -11.5q-64 0 -98.5 33.5
t-34.5 97.5q0 19 11.5 38t28.5 34t38.5 24t40.5 9z" />
    <glyph glyph-name="afii57442" unicode="&#x642;" horiz-adv-x="1428" 
d="M1189 187q0 38 -14.5 75.5t-39.5 67t-58.5 48t-71.5 18.5q-65 0 -115 -25l-1 -1h-1q-44 -36 -44 -86q0 -39 11 -61.5t32 -33.5t52.5 -14t73.5 -3q26 0 67 1t98 3h11v11zM697 272q0 65 24 119t66 93t98.5 60.5t122.5 21.5q147 0 246 -110q98 -108 98 -256v-168l-4 -71
l-4 -82q-29 -185 -172 -294q-132 -93 -284 -93h-293q-194 0 -322 144q-128 146 -128 350v252h157v-259q0 -68 23 -127.5t64.5 -103.5t98 -70t123.5 -26h266q126 0 220 94t94 253v10h-11q-23 -1 -67.5 -1h-110.5q-52 0 -92 4t-68 12q-145 49 -145 248zM851 967q23 0 44.5 -10
t38 -26.5t26.5 -38t10 -44.5q0 -20 -9 -41t-24 -38t-34 -27.5t-39 -10.5q-63 0 -97 34t-34 97q0 19 11 38t28.5 34t38.5 24t40 9zM1144 967q23 0 45 -10t38.5 -26.5t26.5 -38t10 -44.5q0 -20 -9 -41t-24 -38t-34 -27.5t-39 -10.5q-63 0 -97.5 33.5t-34.5 97.5q0 20 11 39
t28 33.5t38 23.5t41 9z" />
    <glyph glyph-name="afii57443" unicode="&#x643;" horiz-adv-x="1633" 
d="M769 897q0 -31 14.5 -48.5t44.5 -17.5q26 0 67 14.5t98 45.5l48 -92l-349 -175l-38 88l87 46q-73 66 -73 134q0 36 14.5 68.5t38.5 56.5t56 38.5t68 15.5q44 -9 109 -36l-44 -93q-42 30 -69 30q-28 0 -43 -16l9 -13l-12 9q-26 -33 -26 -55zM1579 296q0 -69 -20.5 -122
t-59 -89.5t-93 -55.5t-123.5 -19h-933q-108 0 -188 90q-73 91 -73 213v280h171v-252q0 -44 7.5 -74.5t24.5 -49.5t46.5 -27.5t72.5 -8.5h859q87 0 123 52l1 1v1q21 44 21 142v844h164v-925z" />
    <glyph glyph-name="afii57444" unicode="&#x644;" horiz-adv-x="1400" 
d="M286 -14q0 -121 98 -203t227 -82h244q109 0 199 81q113 86 113 204v1235h172v-1195q0 -226 -147 -364q-145 -137 -324 -137h-295q-170 0 -316 153q-145 152 -145 334v388h174v-414z" />
    <glyph glyph-name="afii57445" unicode="&#x645;" horiz-adv-x="1204" 
d="M984 332q0 179 -38 214q-49 44 -276 44h-11v-277q0 -57 52 -100q56 -40 114 -40q159 0 159 159zM92 366q0 87 25.5 158.5t73 123t115.5 80t154 28.5h392q183 0 258 -128q39 -76 39 -241q0 -11 -0.5 -27.5t-1.5 -39.5q0 -137 -98 -226q-95 -89 -224 -89q-130 0 -228 89
q-101 89 -101 252v243l-44 3q-63 0 -129 -58q-63 -57 -63 -141v-868h-168v841z" />
    <glyph glyph-name="afii57446" unicode="&#x646;" horiz-adv-x="1381" 
d="M1309 32q0 -221 -147 -377q-138 -130 -324 -130h-296q-175 0 -313 148q-137 148 -137 339v388h168v-414q0 -110 89 -201q90 -92 231 -92h245q122 0 219 82t97 211v607h168v-561zM837 880q0 -20 -9 -41t-23.5 -38.5t-33 -28.5t-38.5 -11q-57 0 -94.5 30.5t-37.5 87.5
q0 24 9.5 45.5t25.5 38t37.5 26.5t45.5 10t45 -9.5t37.5 -26t26 -38t9.5 -45.5z" />
    <glyph glyph-name="afii57447" unicode="&#x647;" horiz-adv-x="863" 
d="M442 151q37 0 70.5 14t58.5 38.5t40 57t15 69.5q0 66 -30 103l-164 172q-53 -53 -89.5 -93t-58.5 -69l-2 -1l-21 -42l-13 -67v-1q0 -39 44 -110v-3q59 -68 150 -68zM709 555q88 -110 88 -234q0 -126 -107 -230t-251 -104q-147 0 -249 106q-102 107 -102 253q0 103 61 207
l60 76l102 99l-57 67l116 116z" />
    <glyph glyph-name="afii57448" unicode="&#x648;" horiz-adv-x="885" 
d="M652 393q0 89 -38.5 141.5t-123.5 52.5q-47 0 -77 -14t-47 -41t-23.5 -65.5t-6.5 -88.5q0 -119 60 -160q58 -37 246 -37h10v212zM820 -26q0 -164 -136 -306q-137 -143 -334 -143h-236l-24 168h230q147 0 240 93q92 92 92 214v10h-10q-218 0 -338 60q-149 72 -149 300
q0 230 113 329q74 59 222 59q212 0 290 -174q40 -105 40 -369v-241z" />
    <glyph glyph-name="afii57449" unicode="&#x649;" horiz-adv-x="1373" 
d="M692 350q0 66 26.5 126t71 106t103.5 73t125 27h224l9 -157h-225q-102 0 -152 -101l-1 -1q-11 -41 -17.5 -95.5t-6.5 -125.5v-11h11q253 0 344 -44q97 -52 97 -209q0 -124 -36 -196l-1 -1q-21 -83 -105 -162q-134 -128 -321 -128h-296q-179 0 -314 147q-131 143 -131 340
v383h159v-408q0 -131 115 -228q95 -67 209 -67h250q103 0 199 69q105 90 105 192q0 105 -80 131q-37 11 -127 17.5t-235 6.5v316z" />
    <glyph glyph-name="afii57450" unicode="&#x64a;" horiz-adv-x="1373" 
d="M692 350q0 66 26.5 126t71 106t103.5 73t125 27h224l9 -157h-225q-102 0 -152 -101l-1 -1q-11 -41 -17.5 -95.5t-6.5 -125.5v-11h11q253 0 344 -44q97 -52 97 -209q0 -124 -36 -196l-1 -1q-21 -83 -105 -162q-134 -128 -321 -128h-296q-179 0 -314 147q-131 143 -131 340
v383h159v-408q0 -131 115 -228q95 -67 209 -67h250q103 0 199 69q105 90 105 192q0 105 -80 131q-37 11 -127 17.5t-235 6.5v316zM517 -705q23 0 44.5 -10t38 -26.5t26.5 -38t10 -44.5q0 -20 -9 -41t-24 -38t-34 -27.5t-39 -10.5q-63 0 -97 34t-34 97q0 19 11 38t28.5 34
t38.5 24t40 9zM810 -705q23 0 45 -10t38.5 -26.5t26.5 -38t10 -44.5q0 -20 -9 -41t-24 -38t-34 -27.5t-39 -10.5q-63 0 -97.5 33.5t-34.5 97.5q0 20 11 39t28 33.5t38 23.5t41 9z" />
    <glyph glyph-name="afii57451" unicode="&#x64b;" 
d="M205 190v-61l-437 -111v59zM205 341v-61l-437 -111v59z" />
    <glyph glyph-name="afii57452" unicode="&#x64c;" 
d="M-111 341q0 30 11 57.5t30 48t45 32.5t57 12q28 0 54 -11t45.5 -30t31.5 -44t12 -53v-7q0 -104 -77 -154l-333 -188l-40 66q20 11 34 20.5t23 15.5q29 19 29 49q0 20 -12 29t-31 11h-7q-39 0 -90 -10l-9 68q22 4 42 5.5t38 1.5q66 0 96 -25t33 -86l107 65
q-38 20 -63.5 47.5t-25.5 79.5zM104 342q0 29 -21.5 51t-50.5 22q-30 0 -51 -21.5t-21 -51.5q0 -29 21.5 -50t50.5 -21q30 0 51 20.5t21 50.5z" />
    <glyph glyph-name="afii57453" unicode="&#x64d;" 
d="M205 39v-61l-437 -111v58zM205 190v-61l-437 -111v59z" />
    <glyph glyph-name="afii57454" unicode="&#x64e;" 
d="M205 190v-61l-437 -111v59z" />
    <glyph glyph-name="afii57455" unicode="&#x64f;" 
d="M-108 354q0 30 11 57.5t30.5 48t46 32.5t56.5 12q28 0 54 -11t45.5 -30t31 -44.5t11.5 -53.5v-6q0 -103 -76 -154l-334 -188l-40 66l254 143l-17 9q-73 37 -73 119zM107 355q0 29 -21 50.5t-50 21.5t-51 -21.5t-22 -50.5q0 -30 21.5 -50.5t51.5 -20.5t50.5 21t20.5 50z
" />
    <glyph glyph-name="afii57456" unicode="&#x650;" 
d="M205 190v-61l-437 -111v59z" />
    <glyph glyph-name="afii57457" unicode="&#x651;" 
d="M-86 80q22 0 37 9.5t15 30.5v103h60v-103q0 -44 58 -44h10q39 2 39 37v110h63v-99q-3 -52 -19 -68h-1q-30 -35 -77 -35h-5q-52 0 -96 44q-14 -25 -32 -36.5t-56 -11.5q-112 0 -112 107v99h60v-104q4 -39 56 -39z" />
    <glyph glyph-name="afii57458" unicode="&#x652;" 
d="M-181 206q0 39 13.5 74t37.5 61.5t57 42.5t71 16h8q38 0 70.5 -16t56.5 -42.5t37.5 -61.5t13.5 -73q0 -39 -14 -73.5t-38.5 -61t-58 -41.5t-72.5 -15t-72.5 15t-57.5 40.5t-38 60.5t-14 74zM119 204q0 24 -9.5 46t-25 39t-36.5 27.5t-45 10.5q-23 0 -43.5 -10.5
t-36.5 -27.5t-25 -39.5t-9 -45.5q0 -24 9 -46t24 -38.5t36 -26.5t45 -10t45 10t37 26.5t25 38.5t9 46z" />
    <glyph glyph-name="afii57375" unicode="&#x653;" horiz-adv-x="946" 
d="M408 1369q-75 0 -113 -38q-37 -37 -69 -98l-130 48q61 143 105 176q21 18 40.5 29.5t41.5 19t49.5 11t64.5 4.5h407v-152h-396z" />
    <glyph glyph-name="uni0654" unicode="&#x654;" 
d="M-30 1336q0 -34 28.5 -50.5t63.5 -16.5h1q44 0 146 40l29 -69l-364 -132l-20 65l94 36q-58 54 -58 100q0 36 14.5 68.5t39 57.5t56 39.5t65.5 15.5q56 0 106 -44l-43 -63q-29 26 -70 26q-35 0 -61.5 -19.5t-26.5 -53.5z" />
    <glyph glyph-name="uni0655" unicode="&#x655;" 
d="M-32 1335q0 -34 28.5 -50.5t63.5 -16.5h1q44 0 146 40l29 -69l-364 -132l-20 65l94 36q-58 54 -58 100q0 36 14.5 68.5t39 57.5t56 39.5t65.5 15.5q56 0 106 -44l-43 -63q-29 26 -70 26q-35 0 -61.5 -19.5t-26.5 -53.5z" />
    <glyph glyph-name="uni0656" unicode="&#x656;" 
d="M-29 13v275h67v-275h-67z" />
    <glyph glyph-name="afii57392.001" unicode="&#x660;" horiz-adv-x="633" 
d="M322 637q-22 0 -42.5 -9t-36 -24t-24.5 -35t-9 -42t9 -42t24.5 -35t36 -23.5t42.5 -8.5q26 0 46.5 9t35 24t22.5 34.5t8 40.5q0 23 -9 43t-24.5 35t-35.5 24t-43 9zM517 527q0 -39 -16 -73t-43 -60t-62 -41t-74 -15t-74 15t-61.5 41t-42 60t-15.5 73t15.5 73.5t42 60
t61.5 40t74 14.5t74 -15t62 -40.5t43 -60t16 -72.5z" />
    <glyph glyph-name="afii57393.001" unicode="&#x661;" horiz-adv-x="579" 
d="M237 588q0 87 -5 160.5t-16 143.5t-27.5 140t-40.5 150l163 54l63 -250q30 -204 30 -398v-578h-167v578z" />
    <glyph glyph-name="afii57394.001" unicode="&#x662;" horiz-adv-x="1041" 
d="M576 805q35 0 64 12.5t50 34t33 51.5t12 65v1l-28 219l158 52q33 -229 33 -271l1 -71q0 -129 -95 -183q-97 -56 -157 -56h-49q-59 0 -157 58l3 -703h-171v549q0 391 -85 619l163 57l72 -307q30 -127 153 -127z" />
    <glyph glyph-name="afii57395.001" unicode="&#x663;" horiz-adv-x="1314" 
d="M458 805q33 0 63 13t52.5 35t36 52t13.5 63v1l-38 219l162 59q20 -112 30.5 -192.5t10.5 -132.5l-4 -54q46 -70 123 -70q37 0 66 13t49 35.5t30.5 53.5t10.5 68v1l-29 219l161 51l29 -247l2 -53q0 -99 -72 -185q-85 -76 -192 -76h-1q-4 -1 -9.5 -1h-13.5q-129 0 -204 126
l-13 20l-7 -22q-21 -68 -64.5 -103t-127.5 -35q-111 0 -198 66l3 -715h-168v549q0 351 -93 619l168 57l70 -307q33 -127 154 -127z" />
    <glyph glyph-name="afii57396" unicode="&#x664;" horiz-adv-x="1104" 
d="M89 328q0 65 23.5 122t61 104t83.5 84.5t91 62.5q-31 23 -64 54.5t-59.5 70t-43.5 83.5t-17 96v18q0 115 102 205l3 4v4q103 85 220 85q112 0 251 -56q-14 -27 -24.5 -60.5t-20.5 -72.5q-56 20 -99.5 30.5t-77.5 10.5q-37 0 -70 -12t-58 -33.5t-39.5 -52t-14.5 -67.5
q0 -40 13.5 -75.5t37.5 -61.5t57 -41t72 -16h7q72 0 230 85l58 -139q-320 -160 -399 -217q-88 -65 -115 -102q-29 -38 -32 -85v-1q0 -37 14 -67.5t36.5 -54t52.5 -38.5t61 -22h1l451 -8l-9 -155l-406 6h-1q-15 -1 -25 -1.5t-15 -0.5q-70 0 -131 23t-106.5 65t-72 99.5
t-26.5 126.5z" />
    <glyph glyph-name="afii57397" unicode="&#x665;" horiz-adv-x="1335" 
d="M645 156q69 0 132 6t110.5 27.5t76 62t28.5 109.5q0 102 -90 223q-38 51 -112 124t-187 170q-81 -92 -138.5 -170t-92.5 -143q-60 -114 -60 -202q0 -44 15 -95l1 -1l1 -2q45 -64 124 -86.5t192 -22.5zM1173 323q0 -69 -21.5 -123t-60 -92t-91 -62t-114.5 -33
q-68 -10 -117 -15t-80 -5q-85 0 -158 7.5t-135 24.5t-114.5 46.5t-97.5 72.5q-53 83 -53 169q0 50 6 93t19 78q23 62 61 133t82 138t88 123.5t77 89.5l6 17l-5 44l-12 21l-14 9l79 98q655 -498 655 -834z" />
    </font>
</defs>
</svg>
